<?xml version="1.0" encoding="utf-8"?>
<!-- Generator: Adobe Illustrator 16.0.0, SVG Export Plug-In . SVG Version: 6.00 Build 0)  -->
<!DOCTYPE svg PUBLIC "-//W3C//DTD SVG 1.1//EN" "http://www.w3.org/Graphics/SVG/1.1/DTD/svg11.dtd">
<svg version="1.1" id="圖層_1" xmlns="http://www.w3.org/2000/svg" xmlns:xlink="http://www.w3.org/1999/xlink" x="0px" y="0px"
	 width="272px" height="172px" viewBox="0 0 272 172" enable-background="new 0 0 272 172" xml:space="preserve">
<g>
	<g>
		<g>
			<g id="XMLID_138_">
				<path fill="#666666" d="M57.216,35.865C71.755,26.364,66.79,7.34,50.448,4.23C30.114,0.362,9.062,16.234,5.215,36.224
					c-2.084,10.834,1.548,20.78,4.837,30.915c1.408,4.335,2.683,8.828,3.112,13.385c0.545,5.771-1.455,6.121,3.717,8.767
					c14.026,7.174,22.595,2.981,36.239-2.371c-10.302,10.349-22.203,13.514-35.805,6.901c-3.231-1.572-4.388-4.211-6.838-1.245
					c-1.84,2.229-4.715,3.896-7.666,2.833c-7.938-2.856,2.879-10.187,8.427-8.372c0-15.756-11.992-28.654-10.757-44.745
					C1.62,27.475,11.581,14.156,24.048,6.74C35.493-0.074,55.405-4.384,65.475,7.217c3.866,4.453,5.04,11.233,3.084,16.793
					C67.167,27.968,61.264,36.821,57.216,35.865z M5.867,92.539c1.961-0.092,3.395-1.01,4.299-2.75
					C4.751,87.273,1.017,92.539,5.867,92.539z"/>
			</g>
		</g>
		<g id="XMLID_136_">
			<g id="XMLID_137_">
				<path fill="#666666" d="M58.526,55.216c1.854-7.317,21.033-22.651,33.355-13.282C77.564,35.299,62.278,48.317,58.526,55.216z"/>
			</g>
		</g>
		<g id="XMLID_134_">
			<g id="XMLID_135_">
				<path fill="#666666" d="M58.526,58.119c8.756-5.011,25.341-9.894,31.965,3.161C81.503,49.521,68.116,55.216,58.526,58.119z"/>
			</g>
		</g>
		<g id="XMLID_132_">
			<g id="XMLID_133_">
				<path fill="#666666" d="M58.526,62.539c10.007-1.738,27.201-0.047,27.079,14.644C83.217,63.002,68.393,63.094,58.526,62.539z"/>
			</g>
		</g>
		<g id="XMLID_128_">
			<g id="XMLID_129_">
				<path fill="#666666" d="M39.707,62.488c1.271-1.605,1.87-4.05,1.112-7.171c-1.063-4.374-4.113-6.179-6.934-5.958
					c5.605-1.774,13.538,1.196,13.585,1.221c-11.291-5.875-22.497-1.263-25.443,13.009c10.932,4.963,23.123,2.162,25.443-13.009
					C47.462,50.611,44.854,59.628,39.707,62.488z M22.766,63.237c1.386-5.155,4.518-9.92,6.755-11.38
					c-1.072,1.532-1.544,3.714-0.885,6.422c0.93,3.826,3.205,5.814,5.564,6.269C30.773,65.062,28.053,64.774,22.766,63.237z"/>
			</g>
		</g>
		<g>
			<path fill="#666666" d="M78.654,80.875c-1.038-0.562-1.263-2.076-1.946-3.153c-1.004-1.584-2.354-2.954-3.943-3.969
				c-0.654-0.416-1.34-0.771-2.062-1.062c0.477-0.787,0.557-1.913-0.054-2.667c-0.681-0.845-1.831-0.61-2.465,0.135
				c-1.242,1.465,0.416,1.671-1.894,1.596c-2.109-0.069-4.222,0.4-6.112,1.323c-1.116,0.546-2.156,1.247-3.076,2.081
				c-0.121,0.038-1.59-0.227-1.445-0.234c-1.608,0.093-2.847,1.545-2.673,3.135c0.208,1.884,1.002,1.028,0.423,3.158
				c-0.283,1.05-0.434,2.135-0.444,3.221c-0.067,8.164,7.893,14.447,15.917,12.482c3.776-0.923,7-3.559,8.626-7.056
				c0.31-0.666,0.558-1.35,0.749-2.056c0.576-2.128,0.833-0.993,1.964-2.524C81.394,83.698,80.562,81.381,78.654,80.875z
				 M61.117,77.098c1.402-1.397,2.849,0.142,1.521,1.531C61.274,80.057,59.739,78.471,61.117,77.098
				C61.518,76.698,60.716,77.497,61.117,77.098z M70.646,88.837c0.906-1.866,5.25-6.822,3.501-7.387
				c-1.608-0.519-4.208,2.416-4.778,3.165c-1.156,1.518-2.174,3.14-3.144,4.778c-1.466,2.476-1.309,2.158-3.848,2.493
				c1.747-2.802,3.736-5.589,5.129-8.584c1.034-2.224-0.423-2.235-1.772-0.674c-1.096,1.271-2.077,2.645-3.052,4.002
				c-1.28,1.778-2.993,4.665-5.279,5.352c-3.068,0.922-2.657-3.04-1.89-4.586c0.737-1.482,1.64-2.897,2.473-4.328
				c1.255-2.16,1.146-1.607,3.558-1.956c-1.159,1.93-2.32,3.86-3.479,5.793c-0.809,1.343-3.046,6.804,0.315,4.302
				c2.836-2.108,4.562-5.52,6.807-8.196c3.479-4.148,4.944-0.936,2.93,2.552c1.212-2.132,3.017-4.608,5.463-4.608
				c3.803,0,1.114,5.141,0.233,6.478c-0.349,0.525-3.334,5.634-0.3,3.62c1.599-1.063,4.678-4.749,5.426-5.711
				c0.14-0.181-2.525,3.706-2.696,3.928C73.024,93.438,68.688,92.871,70.646,88.837z"/>
		</g>
	</g>
	<g>
		<path fill="#666666" d="M110.228,41.183c0.403,0,1.148,0.584,2.237,1.753c0.928,1.088,1.391,1.875,1.391,2.358
			c0,0.403-0.161,0.724-0.484,0.967c-0.361,0.644-0.746,1.269-1.148,1.875c2.54,1.047,4.313,1.873,5.319,2.477
			c0.767,0.445,1.15,0.848,1.15,1.21c0,1.289-0.103,2.398-0.303,3.325c-0.121,0.685-0.424,1.027-0.906,1.027
			c-0.204,0-0.484-0.243-0.847-0.725c-1.571-2.015-3.305-3.949-5.199-5.803l-0.061-0.061c-2.095,3.708-4.493,7.012-7.193,9.915
			c-2.095,2.337-4.816,4.957-8.161,7.857c-0.483,0.485-0.826,0.726-1.027,0.726c-0.162,0-0.242-0.262-0.242-0.785
			c0-0.203,0.181-0.444,0.543-0.726c3.062-3.184,5.501-6.127,7.315-8.827c2.135-2.982,3.848-5.943,5.139-8.886
			c1.087-2.257,1.833-4.635,2.235-7.133C110.026,41.365,110.107,41.183,110.228,41.183z M115.79,65.85
			c0.241,0,0.948,0.481,2.115,1.45c1.009,0.927,1.513,1.491,1.513,1.693c0,0.604-0.363,1.127-1.089,1.571
			c-2.136,1.733-3.789,3.667-4.958,5.803c-1.329,2.058-2.559,3.97-3.688,5.743c0.727,0.444,1.411,0.887,2.056,1.331
			c0.927,0.645,1.39,1.148,1.39,1.51c0,0.807-0.081,2.036-0.242,3.688c-0.161,1.25-0.403,1.875-0.725,1.875
			c-0.202,0-0.403-0.243-0.605-0.725c-1.249-2.418-3.646-5.462-7.193-9.129c-0.282-0.322-0.422-0.585-0.422-0.786
			c0-0.242,0.08-0.403,0.241-0.482c0.322,0,0.725,0.119,1.208,0.361c1.049,0.523,2.056,1.068,3.023,1.634
			c0.04-0.163,0.101-0.302,0.182-0.424l4.111-9.431l-7.979,1.15c-0.564,0.081-1.008,0.18-1.331,0.301
			c-0.322,0.121-0.544,0.181-0.665,0.181c-0.442,0-1.048-0.363-1.813-1.087c-0.887-0.848-1.331-1.371-1.331-1.573
			c0-0.363,0.242-0.543,0.725-0.543l10.882-0.967c1.168-0.082,2.135-0.564,2.902-1.451C114.943,66.412,115.507,65.85,115.79,65.85z
			 M107.81,57.687c0.161,0,0.363,0.04,0.604,0.122c1.733,0.968,2.921,1.731,3.567,2.296c0.442,0.323,0.664,0.626,0.664,0.908
			c0,1.41-0.101,2.639-0.302,3.687c-0.122,0.765-0.424,1.149-0.908,1.149c-0.081,0-0.222-0.224-0.423-0.665
			c-0.807-1.976-1.693-3.828-2.661-5.563c-0.523-0.845-0.785-1.431-0.785-1.752C107.567,57.747,107.648,57.687,107.81,57.687z
			 M126.913,68.992c0.16,0,0.242,0.08,0.242,0.243c0,0.239-0.082,0.403-0.242,0.482l-6.227,8.22
			c-0.161,0.204-0.261,0.303-0.303,0.303c-0.483,0-1.208-0.262-2.176-0.784c-1.129-0.402-1.693-0.725-1.693-0.968
			c0-0.161,0.161-0.321,0.483-0.483l9.612-6.892C126.731,69.033,126.833,68.992,126.913,68.992z M129.815,46.018
			c0.323,0,0.928,0.323,1.814,0.969c1.087,0.765,1.671,1.33,1.752,1.692c0.242-0.04,0.504-0.081,0.787-0.12l4.352-0.605
			c1.571-0.08,2.78-0.644,3.626-1.692c0.523-0.806,1.01-1.209,1.453-1.209c0.36,0,1.048,0.343,2.053,1.027
			c1.251,0.847,1.936,1.472,2.055,1.875c-0.079,0.483-0.462,1.188-1.147,2.116c-0.846,0.847-1.271,1.754-1.271,2.72v36.755
			c0,2.136-0.181,3.77-0.542,4.896c-0.482,1.29-0.948,1.934-1.391,1.934c-0.242,0-0.483-0.241-0.726-0.725
			c-2.218-2.498-4.473-4.757-6.77-6.771c-0.163-0.16-0.243-0.321-0.243-0.482c0-0.524,0.08-0.787,0.243-0.787
			c0.202,0,0.383,0.041,0.543,0.123c1.332,0.402,2.742,0.805,4.232,1.208c0.243,0.081,0.504,0.122,0.787,0.122
			c0.199,0,0.322-0.403,0.361-1.21c0.082-1.814,0.122-3.909,0.122-6.287V50.736l-4.113,0.905c-0.805,0.161-1.369,0.322-1.69,0.484
			c-0.202,0.161-0.363,0.242-0.485,0.242c-0.564,0-1.349-0.423-2.357-1.269c-0.242-0.283-0.442-0.564-0.604-0.848
			c-0.081,0.123-0.162,0.243-0.243,0.362c-0.765,0.728-1.148,1.532-1.148,2.42v21.763l9.369-5.925
			c0.081-0.081,0.183-0.122,0.303-0.122c0.161,0,0.242,0.083,0.242,0.243c0,0.363-0.081,0.604-0.242,0.725l-5.561,7.255
			c-0.122,0.162-0.202,0.24-0.242,0.24c-0.525,0-1.35-0.24-2.479-0.723c-0.604-0.202-1.068-0.382-1.39-0.545v12.213
			c0,1.974-0.201,3.466-0.604,4.473c-0.444,1.17-0.888,1.754-1.33,1.754c-0.202,0-0.464-0.201-0.786-0.604
			c-2.136-2.541-4.292-4.838-6.468-6.893c-0.162-0.16-0.243-0.321-0.243-0.481c0-0.283,0.081-0.424,0.243-0.424
			c0.2,0,0.381,0.038,0.543,0.12c1.329,0.402,2.741,0.865,4.232,1.39c0.281,0.08,0.543,0.121,0.784,0.121
			c0.162,0,0.283-0.363,0.364-1.089c0.081-1.693,0.121-3.646,0.121-5.863V51.278l-3.565,0.907c-0.767,0.161-1.291,0.303-1.573,0.423
			c-0.162,0.122-0.301,0.182-0.423,0.182c-0.524,0-1.249-0.343-2.176-1.027c-0.644-0.645-0.967-1.25-0.967-1.813
			c0-0.163,0.241-0.241,0.724-0.241c0.284,0,0.646-0.062,1.09-0.182l3.99-0.847c1.451-0.081,2.54-0.584,3.265-1.511
			C128.969,46.403,129.411,46.018,129.815,46.018z M119.9,58.593c0.161,0,0.343,0.08,0.544,0.243
			c1.732,1.249,2.962,2.215,3.688,2.901c0.403,0.484,0.604,0.886,0.604,1.208c0,1.25-0.099,2.358-0.302,3.326
			c-0.12,0.685-0.423,1.028-0.907,1.028c-0.121,0-0.282-0.243-0.483-0.726c-0.766-2.054-1.652-4.009-2.659-5.864
			c-0.482-0.928-0.726-1.549-0.726-1.874C119.659,58.673,119.74,58.593,119.9,58.593z M133.985,57.868
			c0.161,0,0.384,0.101,0.666,0.303c1.37,0.806,2.621,1.753,3.748,2.841c0.564,0.403,0.847,0.726,0.847,0.967
			c0,0.725-0.182,1.715-0.545,2.962c-0.644,1.411-1.188,2.115-1.631,2.115c-0.202,0-0.364-0.241-0.484-0.726
			c-0.565-2.133-1.431-4.472-2.6-7.011c-0.201-0.403-0.303-0.725-0.303-0.967C133.683,58.029,133.784,57.868,133.985,57.868z"/>
		<path fill="#666666" d="M179.869,50.855c0.484,0,1.146,0.322,1.994,0.968c0.767,0.967,1.148,1.611,1.148,1.935
			c0,0.322-0.16,0.483-0.482,0.483c-3.466,0.402-7.313,0.908-11.546,1.512c-4.031,0.481-6.509,0.867-7.436,1.147
			c-0.363,0.201-0.646,0.303-0.848,0.303c-0.361,0-1.007-0.442-1.933-1.33c-0.808-0.807-1.208-1.349-1.208-1.633
			c0-0.322,0.24-0.483,0.722-0.483c3.267-0.242,5.502-0.463,6.711-0.665c1.534-0.202,2.963-0.384,4.294-0.545
			c1.973-0.322,3.586-0.603,4.836-0.847c1.048-0.121,1.913-0.301,2.598-0.543C179.325,50.957,179.708,50.855,179.869,50.855z
			 M175.519,58.836c0.48,0,1.128,0.343,1.933,1.027c0.806,0.928,1.21,1.552,1.21,1.875c0,0.321-0.161,0.483-0.482,0.483
			c-2.017,0.321-4.233,0.706-6.651,1.146c-2.256,0.364-3.666,0.646-4.232,0.848c-0.241,0.12-0.401,0.181-0.482,0.181
			c-0.363,0-1.027-0.402-1.995-1.209c-0.767-0.848-1.149-1.411-1.149-1.692c0-0.322,0.242-0.483,0.727-0.483
			c1.854-0.161,3.122-0.321,3.808-0.482c0.848-0.162,1.674-0.304,2.479-0.424c1.09-0.281,1.995-0.483,2.72-0.603
			c0.605-0.122,1.09-0.264,1.453-0.424C175.216,58.917,175.437,58.836,175.519,58.836z M176.484,66.331
			c0.443,0,1.105,0.322,1.995,0.968c0.766,0.968,1.147,1.611,1.147,1.936c0,0.322-0.16,0.482-0.483,0.482
			c-2.136,0.322-4.533,0.706-7.193,1.148c-2.499,0.363-4.051,0.644-4.655,0.847c-0.2,0.119-0.361,0.182-0.482,0.182
			c-0.363,0-1.027-0.404-1.995-1.209c-0.767-0.847-1.149-1.41-1.149-1.692c0-0.322,0.242-0.483,0.727-0.483
			c2.014-0.163,3.405-0.323,4.171-0.484c0.927-0.16,1.813-0.303,2.659-0.422c1.211-0.243,2.176-0.444,2.902-0.604
			c0.685-0.121,1.25-0.264,1.695-0.424C176.181,66.412,176.403,66.331,176.484,66.331z M165.118,73.345
			c0.645,0,1.472,1.05,2.479,3.144c0.121,0.2,0.222,0.402,0.303,0.604l5.198-0.362c1.531-0.161,2.642-0.767,3.327-1.813
			c0.685-1.169,1.187-1.755,1.51-1.755c0.442,0,1.088,0.444,1.935,1.331c1.128,1.008,1.691,1.673,1.691,1.995
			c0,0.443-0.321,1.027-0.967,1.751c-0.564,0.687-0.887,1.494-0.968,2.421l-1.088,7.738c0.12,0.12,0.263,0.24,0.423,0.364
			c0.766,0.723,1.149,1.227,1.149,1.508c0,0.122-0.323,0.225-0.969,0.304c-3.588,0.32-6.931,0.624-10.035,0.908
			c0,1.047-0.182,2.054-0.545,3.021c0,0.241-0.26,0.362-0.784,0.362c-0.444,0-1.09-0.604-1.935-1.813
			c-0.604-1.168-0.907-2.096-0.907-2.782c0-0.403,0.081-0.744,0.243-1.027c0.361-1.008,0.543-2.72,0.543-5.138
			c0-2.015-0.162-4.232-0.482-6.65c-0.202-1.894-0.304-3.022-0.304-3.384C164.938,73.667,164.997,73.426,165.118,73.345z
			 M168.021,41.424c0.282,0,0.623,0.102,1.027,0.303c1.813,0.685,3.505,1.491,5.077,2.418c0.765,0.403,1.146,0.705,1.146,0.906
			c0,0.806-0.198,1.935-0.603,3.386c-0.685,1.613-1.288,2.418-1.813,2.418c-0.361,0-0.645-0.243-0.846-0.724
			c-0.848-2.176-2.197-4.594-4.051-7.254c-0.281-0.403-0.424-0.705-0.424-0.908C167.537,41.606,167.701,41.424,168.021,41.424z
			 M169.049,88.639c2.942-0.281,5.058-0.524,6.348-0.727l0.543-8.582l-7.253,0.604c0.038,0.401,0.061,0.785,0.061,1.147
			C168.826,81.768,168.927,84.286,169.049,88.639z M201.391,65.85c0.201,0,0.786,0.583,1.752,1.752
			c0.767,0.847,1.149,1.39,1.149,1.633c0,0.28-0.282,0.725-0.845,1.329c-0.524,0.442-0.97,1.049-1.332,1.815
			c-2.297,4.554-4.675,8.423-7.134,11.606c-0.08,0.079-0.16,0.16-0.242,0.241c1.008,1.047,2.016,2.055,3.022,3.021
			c2.781,2.459,5.119,4.012,7.014,4.655c1.531,0.402,3.728,0.747,6.589,1.027c0.604,0.041,0.908,0.223,0.908,0.546
			c0,0.4-0.243,0.623-0.727,0.664c-5.521,0.967-8.462,1.45-8.825,1.45c-0.565,0-1.029-0.261-1.391-0.786
			c-2.58-3.145-5.239-6.105-7.98-8.887c-1.331,1.411-2.782,2.741-4.353,3.99c-1.371,1.049-3.164,2.197-5.381,3.446
			c-2.458,1.329-4.655,2.357-6.59,3.084c-1.37,0.563-2.197,0.847-2.477,0.847c-0.485,0-0.727-0.162-0.727-0.484
			c0-0.2,0.081-0.342,0.241-0.424c4.635-2.296,8.021-4.393,10.156-6.286c2.459-2.015,4.594-4.291,6.408-6.832
			c-3.506-3.627-5.985-5.984-7.435-7.072c-0.445-0.282-0.665-0.563-0.665-0.848c0-0.282,0.322-0.481,0.967-0.603
			c0.725-0.121,1.289-0.182,1.691-0.182c0.766,0,1.412,0.342,1.936,1.027c1.572,1.974,3.183,3.889,4.835,5.743
			c0.081-0.081,0.144-0.162,0.182-0.243c1.009-1.49,2.056-3.426,3.144-5.805c0.808-1.61,1.431-3.04,1.874-4.29
			c-1.61,0.282-3.344,0.584-5.198,0.907c-1.934,0.24-3.404,0.564-4.412,0.967c-0.482,0.202-0.866,0.302-1.148,0.302
			c-0.563,0-1.309-0.481-2.237-1.45c-0.765-1.007-1.147-1.674-1.147-1.997c0-0.16,0.16-0.241,0.484-0.241
			c4.675-0.403,8.624-0.806,11.849-1.209c1.49-0.203,2.82-0.583,3.989-1.149C200.382,66.271,201.068,65.85,201.391,65.85z
			 M185.431,42.211c0.202,0,0.848,0.827,1.937,2.479c0.321,0.483,0.602,0.927,0.844,1.329h3.992
			c1.611-0.281,2.841-0.886,3.687-1.813c1.05-1.048,1.673-1.571,1.875-1.571c0.282,0,0.927,0.444,1.934,1.33l1.451,1.33
			c0,0.241-0.383,0.806-1.148,1.693c-0.847,0.765-1.27,1.592-1.27,2.479c0,6.93,0.182,10.538,0.545,10.819
			c0.322,0.322,0.926,0.484,1.813,0.484c1.451,0,2.921-0.282,4.413-0.847c0.725-0.242,1.209-0.362,1.45-0.362
			c0.321,0,0.928,0.423,1.813,1.271c0.726,0.804,1.09,1.37,1.09,1.693c0,0.361-0.343,0.602-1.029,0.723
			c-4.271,0.605-7.112,0.907-8.523,0.907c-1.813,0-3.082-0.362-3.81-1.09c-0.724-0.968-1.107-5.803-1.146-14.506l-6.048,0.242
			c0,0.121,0,0.241,0,0.364c0,1.651-0.12,3.466-0.36,5.439c-0.203,1.492-0.685,3.122-1.452,4.899c-0.686,1.57-1.552,2.981-2.6,4.23
			c-0.846,1.09-1.976,2.178-3.385,3.265c-0.202,0.202-0.342,0.303-0.425,0.303c-0.322,0-0.482-0.243-0.482-0.726
			c0-0.161,0.062-0.343,0.181-0.545c0.766-0.925,1.392-1.792,1.874-2.598c0.565-0.847,1.05-1.874,1.454-3.083
			c0.522-1.57,0.904-3.083,1.147-4.532c0.281-1.694,0.423-3.81,0.423-6.349c0-1.008-0.142-2.317-0.423-3.93
			c-0.202-1.41-0.303-2.297-0.303-2.66C184.948,42.434,185.109,42.211,185.431,42.211z"/>
		<path fill="#666666" d="M242.317,51.098c0.322,0,1.088,0.545,2.297,1.634c1.169,1.047,1.754,1.732,1.754,2.054
			c0,0.281-0.243,0.424-0.727,0.424c-3.506,0.241-8.059,0.665-13.662,1.268c-4.918,0.525-7.596,0.868-8.04,1.028
			c-0.363,0.121-0.624,0.181-0.786,0.181c-0.645,0-1.512-0.543-2.599-1.631c-0.686-0.604-1.026-1.129-1.026-1.572
			c0-0.646,0.481-0.968,1.448-0.968c1.613,0,5.119-0.18,10.521-0.545c5.399-0.603,8.766-1.169,10.095-1.692
			C241.832,51.158,242.074,51.098,242.317,51.098z M238.146,59.561c0.442,0,1.068,0.282,1.874,0.848
			c0.685,0.764,1.028,1.288,1.028,1.57c0,0.523-0.08,0.785-0.243,0.785c-2.175,0.245-4.613,0.585-7.313,1.03
			c-2.541,0.361-4.131,0.664-4.777,0.905c-0.202,0.162-0.361,0.243-0.483,0.243c-0.322,0-0.927-0.403-1.813-1.209
			c-0.724-0.723-1.089-1.229-1.089-1.51c0-0.322,0.161-0.483,0.485-0.483c2.054-0.202,3.465-0.363,4.23-0.484
			c0.969-0.16,1.875-0.304,2.72-0.423c1.25-0.242,2.256-0.442,3.022-0.604c0.645-0.08,1.19-0.222,1.634-0.421
			C237.823,59.641,238.063,59.561,238.146,59.561z M238.388,66.815c0.443,0,1.068,0.281,1.875,0.847
			c0.686,0.765,1.027,1.29,1.027,1.572c0,0.482-0.082,0.725-0.242,0.725c-2.054,0.322-4.372,0.706-6.952,1.147
			c-2.378,0.363-3.828,0.646-4.352,0.847c-0.283,0.12-0.465,0.182-0.544,0.182c-0.323,0-0.929-0.382-1.815-1.148
			c-0.725-0.766-1.088-1.269-1.088-1.512c0-0.322,0.182-0.482,0.543-0.482c1.895-0.162,3.207-0.322,3.931-0.483
			c0.927-0.162,1.773-0.304,2.538-0.424c1.211-0.241,2.158-0.463,2.843-0.665c0.604-0.08,1.129-0.222,1.571-0.423
			C238.086,66.876,238.308,66.815,238.388,66.815z M227.021,73.162c0.363,0,0.968,0.665,1.815,1.995
			c0.239,0.443,0.481,0.928,0.723,1.451l5.686-0.786c1.409-0.161,2.417-0.706,3.02-1.633c0.565-1.006,1.01-1.51,1.333-1.51
			c0.441,0,1.047,0.384,1.813,1.147c1.049,0.848,1.572,1.431,1.572,1.755c0,0.4-0.283,0.927-0.849,1.57
			c-0.48,0.686-0.765,1.432-0.847,2.237l-1.026,7.679c0.16,0.12,0.362,0.281,0.604,0.482c0.767,0.725,1.148,1.229,1.148,1.512
			c0,0.16-0.325,0.28-0.969,0.361c-3.707,0.402-7.174,0.766-10.398,1.09v2.417c0,1.772-0.401,2.66-1.209,2.66
			c-0.403,0-0.926-0.584-1.57-1.752c-0.687-1.129-1.029-2.238-1.029-3.325c0-0.243,0.082-0.546,0.242-0.908
			c0.281-0.684,0.464-2.276,0.545-4.777c0-4.069-0.242-7.112-0.726-9.127c-0.242-1.209-0.362-1.915-0.362-2.115
			C226.538,73.305,226.7,73.162,227.021,73.162z M230.649,87.611c3.065-0.323,5.28-0.604,6.65-0.846l0.544-8.585l-7.558,0.967
			c0.202,1.211,0.324,2.6,0.363,4.173V87.611L230.649,87.611z M230.649,42.393c0.203,0,0.484,0.101,0.848,0.303
			c1.611,0.846,3.104,1.854,4.472,3.022c0.647,0.403,0.971,0.745,0.971,1.028c0,0.725-0.184,1.712-0.547,2.963
			c-0.643,1.409-1.186,2.115-1.631,2.115c-0.323,0-0.564-0.262-0.726-0.786c-0.646-2.177-1.752-4.575-3.325-7.194
			c-0.2-0.403-0.302-0.726-0.302-0.968C230.409,42.553,230.488,42.393,230.649,42.393z M267.888,57.868
			c0.364,0,1.149,0.524,2.359,1.573c1.168,1.087,1.753,1.772,1.753,2.054c0,0.323-0.243,0.484-0.727,0.484
			c-3.143,0.283-7.093,0.706-11.848,1.269v20.496c0,3.061-0.162,6.063-0.483,9.006c-0.402,2.699-0.787,4.051-1.148,4.051
			c-0.403,0-1.27-0.887-2.602-2.661c-0.725-0.927-1.087-1.731-1.087-2.419c0-0.523,0.122-1.007,0.361-1.45
			c0.487-0.443,0.809-1.35,0.969-2.721c0.24-1.248,0.362-3.625,0.362-7.133V63.671c-4.794,0.645-7.415,1.068-7.86,1.271
			c-0.401,0.162-0.683,0.242-0.844,0.242c-0.645,0-1.512-0.544-2.6-1.632c-0.686-0.605-1.029-1.129-1.029-1.572
			c0-0.646,0.484-0.967,1.453-0.967c1.691,0,5.319-0.224,10.88-0.666v-8.22c0-2.983-0.382-5.643-1.146-7.98
			c-0.849-1.492-1.27-2.398-1.27-2.721c0-0.483,0.241-0.725,0.724-0.725c0.443,0,1.593,0.766,3.445,2.297
			c1.733,1.613,2.601,2.7,2.601,3.265c0,0.725-0.121,1.35-0.361,1.875c-0.243,0.604-0.362,1.752-0.362,3.445v8.282
			c3.988-0.646,6.568-1.209,7.737-1.692C267.445,57.969,267.688,57.868,267.888,57.868z"/>
	</g>
</g>
<rect x="31" y="120" fill="#C6CFD4" width="210" height="52"/>
<g>
	<path fill="#666666" d="M62.019,152.682c-0.635,0-1.128-0.143-1.479-0.426c-0.352-0.283-0.527-0.561-0.527-0.832
		c0-0.182,0.079-0.334,0.238-0.459c0.158-0.125,0.408-0.188,0.748-0.188c1.881,0,3.706-0.352,5.474-1.055
		c1.769-0.701,3.366-1.66,4.794-2.873c1.428-1.211,2.562-2.6,3.4-4.164c0.838-1.564,1.258-3.207,1.258-4.93
		c0-1.27-0.272-2.336-0.816-3.197s-1.258-1.574-2.142-2.141c-1.292-0.816-2.777-1.406-4.454-1.77
		c-1.678-0.361-3.389-0.543-5.134-0.543c-1.564,0-3.094,0.125-4.59,0.373c-1.496,0.25-2.868,0.568-4.114,0.953
		c-0.907,0.295-1.763,0.662-2.567,1.105c-0.805,0.441-1.45,0.93-1.938,1.461c-0.488,0.533-0.731,1.094-0.731,1.684
		c0,0.566,0.232,1.025,0.697,1.377c0.464,0.352,1.06,0.527,1.785,0.527c0.748,0,1.592-0.199,2.533-0.596
		c0.94-0.396,1.897-1.049,2.873-1.955c0.045-0.045,0.079-0.068,0.102-0.068c0.068,0,0.103,0.057,0.103,0.17
		c0,0.137-0.052,0.318-0.153,0.545c-0.103,0.227-0.255,0.43-0.459,0.611c-0.794,0.727-1.678,1.264-2.652,1.615
		s-1.915,0.527-2.822,0.527c-0.227,0-0.459-0.012-0.696-0.035c-0.238-0.021-0.459-0.055-0.663-0.102
		c-0.771-0.182-1.377-0.543-1.819-1.088c-0.441-0.543-0.663-1.166-0.663-1.869c0-0.906,0.277-1.711,0.833-2.414
		s1.292-1.326,2.21-1.871c0.918-0.543,1.933-0.996,3.043-1.359c1.36-0.453,2.827-0.816,4.403-1.088
		c1.575-0.271,3.156-0.408,4.743-0.408c1.881,0,3.717,0.209,5.508,0.629c1.79,0.42,3.4,1.105,4.828,2.057
		c1.269,0.84,2.278,1.887,3.026,3.145c0.747,1.26,1.121,2.693,1.121,4.303c0,1.994-0.431,3.857-1.292,5.592s-2.028,3.26-3.502,4.574
		s-3.116,2.34-4.93,3.076S63.923,152.682,62.019,152.682z M59.843,153.498c-0.544,0-0.975-0.211-1.292-0.631
		c-0.317-0.418-0.566-0.877-0.748-1.377c-0.204-0.656-0.352-1.387-0.442-2.191s-0.136-1.66-0.136-2.568
		c0-1.359,0.079-2.764,0.238-4.215c0.158-1.451,0.356-2.834,0.595-4.148s0.459-2.436,0.663-3.365
		c0.136-0.59,0.261-1.186,0.374-1.785c0.113-0.602,0.283-1.162,0.51-1.684c0.022-0.068,0.073-0.113,0.153-0.137
		c0.079-0.021,0.153-0.033,0.221-0.033c0.158,0,0.414,0.033,0.766,0.102c0.351,0.068,0.69,0.17,1.02,0.307
		c0.328,0.135,0.527,0.307,0.595,0.51v0.17c-0.476,1.406-0.951,2.941-1.428,4.607c-0.476,1.666-0.873,3.389-1.189,5.168
		c-0.318,1.779-0.477,3.564-0.477,5.355v0.135c0,0.635,0.006,1.314,0.018,2.041c0.011,0.725,0.067,1.416,0.17,2.074
		c0.102,0.656,0.266,1.211,0.492,1.666H59.843z"/>
	<path fill="#666666" d="M82.759,153.328c-1.088,0-1.967-0.336-2.635-1.004c-0.669-0.668-1.156-1.496-1.463-2.482
		c-0.306-0.986-0.459-1.955-0.459-2.906c0-1.088,0.113-2.182,0.341-3.281c0.226-1.1,0.583-2.102,1.07-3.01
		c0.487-0.906,1.105-1.637,1.854-2.191c0.748-0.557,1.632-0.834,2.651-0.834c0.726,0,1.292,0.215,1.7,0.646
		c0.408,0.43,0.612,1.064,0.612,1.904c0,1.133-0.278,2.137-0.833,3.008c-0.556,0.873-1.253,1.582-2.091,2.125
		c-0.839,0.545-1.712,0.918-2.618,1.123v0.17c0,0.93,0.096,1.797,0.289,2.6c0.192,0.807,0.51,1.451,0.952,1.939
		c0.441,0.486,1.025,0.73,1.751,0.73c0.884,0,1.563-0.369,2.04-1.105c0.476-0.736,0.85-1.672,1.122-2.805
		c0.021-0.09,0.062-0.176,0.118-0.256c0.057-0.078,0.107-0.117,0.153-0.117c0.204,0,0.295,0.146,0.272,0.441
		c-0.068,0.611-0.204,1.189-0.408,1.734c-0.204,0.543-0.42,1.008-0.646,1.393c-0.431,0.703-0.946,1.242-1.547,1.615
		C84.385,153.141,83.643,153.328,82.759,153.328z M80.923,145.643c0.725-0.18,1.359-0.537,1.903-1.07s0.97-1.162,1.275-1.887
		s0.459-1.463,0.459-2.211v-0.17c0-0.408-0.063-0.793-0.187-1.156c-0.125-0.361-0.357-0.543-0.697-0.543
		c-0.408,0-0.766,0.199-1.071,0.594c-0.306,0.398-0.566,0.902-0.782,1.514c-0.215,0.611-0.391,1.248-0.526,1.904
		c-0.137,0.658-0.233,1.258-0.289,1.803c-0.057,0.543-0.085,0.939-0.085,1.189V145.643z"/>
	<path fill="#666666" d="M90.442,153.055c-1.021,0-1.876-0.244-2.567-0.73s-1.037-1.354-1.037-2.602
		c0-0.045,0.006-0.152,0.018-0.322c0.011-0.17,0.027-0.346,0.051-0.527c-0.137-0.25-0.204-0.59-0.204-1.02
		c0-0.271,0.045-0.51,0.136-0.715c0.091-0.203,0.227-0.305,0.408-0.305h0.034c0.067,0,0.158,0.078,0.271,0.236
		c0.295-0.838,0.566-1.705,0.816-2.6c0.249-0.896,0.476-1.695,0.68-2.398c0.227-0.814,0.516-1.693,0.867-2.635
		c0.352-0.939,0.912-1.66,1.683-2.158c0.59-0.385,1.225-0.578,1.904-0.578c0.045,0,0.103,0.006,0.17,0.018
		c0.068,0.012,0.124,0.016,0.17,0.016c0.182,0.023,0.272,0.104,0.272,0.238c0,0.16-0.08,0.238-0.238,0.238
		c-0.25,0.023-0.431,0.221-0.544,0.596c-0.113,0.373-0.17,0.799-0.17,1.275c0,0.113,0,0.236,0,0.373s0.011,0.262,0.034,0.375
		c0.09,0.748,0.294,1.568,0.611,2.465c0.317,0.895,0.618,1.791,0.901,2.686s0.425,1.729,0.425,2.498v0.17
		c0,0.295-0.017,0.613-0.051,0.953s-0.107,0.668-0.221,0.986c0.316-0.023,0.629-0.063,0.935-0.119s0.583-0.131,0.833-0.221
		c0.317-0.137,0.572-0.295,0.765-0.477s0.357-0.385,0.493-0.613c0.046-0.066,0.103-0.102,0.17-0.102c0.182,0,0.272,0.113,0.272,0.34
		c0,0.068-0.022,0.148-0.068,0.238c-0.249,0.5-0.702,0.908-1.359,1.225c-0.658,0.318-1.429,0.498-2.313,0.543
		c-0.317,0.727-0.811,1.35-1.479,1.871C92.442,152.795,91.553,153.055,90.442,153.055z M89.524,151.934h0.136
		c0.408-0.045,0.815-0.188,1.224-0.426s0.702-0.605,0.884-1.105c0-0.021,0.006-0.039,0.018-0.051
		c0.011-0.01,0.017-0.027,0.017-0.051c-0.839-0.068-1.626-0.176-2.362-0.322c-0.737-0.148-1.332-0.334-1.785-0.561
		c0,0.066-0.006,0.135-0.018,0.203s-0.017,0.125-0.017,0.17c0,0.68,0.175,1.207,0.527,1.582
		C88.498,151.746,88.957,151.934,89.524,151.934z M92.074,149.213c0.045-0.248,0.079-0.51,0.102-0.781
		c0.022-0.273,0.034-0.545,0.034-0.816c0-0.43-0.022-0.867-0.068-1.309c-0.045-0.443-0.102-0.879-0.17-1.309
		c-0.158-1.066-0.346-2.041-0.561-2.926c-0.216-0.883-0.323-1.676-0.323-2.379c0-0.363,0.034-0.691,0.103-0.986
		c-0.114,0-0.238,0.17-0.374,0.51c-0.137,0.34-0.272,0.727-0.408,1.156c-0.136,0.432-0.25,0.816-0.34,1.156
		c-0.272,0.975-0.567,1.979-0.885,3.01s-0.657,2.045-1.02,3.043c0.249,0.158,0.538,0.316,0.867,0.475
		c0.328,0.16,0.651,0.307,0.969,0.443c0.294,0.135,0.617,0.266,0.969,0.391S91.688,149.123,92.074,149.213z"/>
	<path fill="#666666" d="M100.777,152.852c-0.815,0-1.457-0.346-1.921-1.037c-0.465-0.691-0.794-1.576-0.986-2.652
		s-0.289-2.205-0.289-3.383c0-0.975,0.052-1.922,0.153-2.84c0.103-0.918,0.227-1.721,0.374-2.414
		c0.147-0.689,0.289-1.184,0.425-1.479c0.137-0.271,0.357-0.527,0.663-0.766c0.307-0.236,0.72-0.355,1.241-0.355
		c0.294,0,0.589,0.033,0.884,0.102c-0.227,0.793-0.499,1.893-0.815,3.297c-0.318,1.406-0.477,2.959-0.477,4.658
		c0,0.59,0.012,1.219,0.034,1.889c0.022,0.668,0.079,1.291,0.17,1.869s0.232,1.049,0.425,1.41c0.192,0.363,0.447,0.545,0.766,0.545
		h0.033c0.182,0,0.38-0.09,0.596-0.271c0.215-0.182,0.447-0.521,0.696-1.021c0.341-0.656,0.657-1.506,0.952-2.549
		c0.046-0.205,0.137-0.307,0.272-0.307c0.113,0,0.17,0.137,0.17,0.408v0.137c-0.046,0.59-0.204,1.258-0.476,2.006
		c-0.272,0.748-0.652,1.393-1.14,1.938S101.457,152.852,100.777,152.852z M101.016,135.477c-0.431,0-0.811-0.158-1.139-0.475
		c-0.329-0.318-0.493-0.703-0.493-1.156s0.164-0.838,0.493-1.156c0.328-0.318,0.708-0.477,1.139-0.477
		c0.453,0,0.838,0.158,1.156,0.477c0.316,0.318,0.476,0.703,0.476,1.156s-0.159,0.838-0.476,1.156
		C101.854,135.318,101.469,135.477,101.016,135.477z"/>
	<path fill="#666666" d="M106.558,165.193c-1.247,0-2.137-0.313-2.669-0.936c-0.533-0.623-0.8-1.4-0.8-2.328
		c0-0.703,0.125-1.445,0.374-2.227c0.25-0.783,0.566-1.561,0.952-2.33c0.521-1.02,1.213-1.961,2.074-2.822s1.745-1.627,2.652-2.295
		c0.906-0.668,1.688-1.207,2.346-1.615v-0.238c0-0.406-0.017-0.963-0.051-1.666c-0.034-0.701-0.074-1.438-0.119-2.209
		c-0.046-0.77-0.091-1.451-0.136-2.041c-0.046,0.16-0.091,0.313-0.137,0.459c-0.045,0.148-0.091,0.289-0.136,0.426
		c-0.204,0.771-0.441,1.598-0.714,2.482c-0.272,0.883-0.59,1.705-0.952,2.465s-0.776,1.383-1.241,1.869
		c-0.465,0.488-0.98,0.732-1.547,0.732c-0.59,0-1.065-0.182-1.428-0.545c-0.363-0.361-0.635-0.82-0.816-1.377
		c-0.182-0.555-0.306-1.127-0.374-1.717c-0.067-0.59-0.102-1.123-0.102-1.598c0-1.814,0.209-3.537,0.629-5.168
		c0.419-1.633,1.15-2.936,2.193-3.91c0.453-0.43,0.923-0.736,1.411-0.918c0.486-0.182,0.945-0.271,1.377-0.271
		c0.521,0,1.003,0.107,1.444,0.322c0.442,0.215,0.799,0.492,1.071,0.832c0.272-0.316,0.578-0.514,0.918-0.594
		s0.646-0.119,0.918-0.119h0.408c0.34,0,0.51,0.068,0.51,0.203c0,0.047-0.046,0.115-0.136,0.205c-0.227,0.203-0.403,0.6-0.527,1.189
		c-0.125,0.59-0.21,1.287-0.255,2.092c-0.046,0.805-0.068,1.637-0.068,2.498c0,0.975,0.012,1.91,0.034,2.805
		c0.022,0.896,0.034,1.594,0.034,2.092v0.373c0.635-0.385,1.201-0.697,1.7-0.934c0.498-0.238,0.872-0.357,1.122-0.357
		c0.045,0,0.079,0.006,0.102,0.018s0.045,0.016,0.068,0.016c0.113,0.023,0.17,0.102,0.17,0.238c0,0.092-0.022,0.176-0.068,0.256
		c-0.045,0.078-0.113,0.119-0.204,0.119c-0.271,0.021-0.641,0.164-1.104,0.424c-0.465,0.262-0.89,0.557-1.275,0.885
		s-0.578,0.617-0.578,0.867v0.543c0,3.129-0.322,5.713-0.969,7.752c-0.646,2.041-1.508,3.559-2.584,4.557
		C108.999,164.693,107.826,165.193,106.558,165.193z M106.184,164.479c1.11,0,2.04-0.531,2.788-1.598
		c0.748-1.064,1.331-2.566,1.751-4.504c0.419-1.939,0.685-4.234,0.799-6.887c-0.363,0.205-0.918,0.625-1.666,1.26
		c-0.748,0.633-1.524,1.422-2.329,2.361c-0.805,0.941-1.479,2.012-2.023,3.213c-0.295,0.658-0.521,1.299-0.68,1.922
		c-0.159,0.623-0.238,1.195-0.238,1.717c0,0.748,0.142,1.354,0.426,1.818C105.294,164.246,105.685,164.479,106.184,164.479z
		 M107.339,150.166h0.103c0.431,0,0.821-0.283,1.173-0.852c0.352-0.566,0.668-1.285,0.952-2.158
		c0.283-0.873,0.532-1.779,0.748-2.721c0.215-0.939,0.391-1.789,0.527-2.549c0.136-0.76,0.237-1.309,0.306-1.65
		c0.09-0.543,0.249-0.996,0.476-1.359c-0.249-0.316-0.601-0.477-1.054-0.477c-0.68,0-1.264,0.217-1.751,0.646
		c-0.487,0.432-0.896,0.998-1.224,1.701c-0.329,0.701-0.59,1.443-0.782,2.227c-0.193,0.781-0.335,1.529-0.425,2.244
		c-0.091,0.713-0.137,1.309-0.137,1.785c0,0.158,0.006,0.408,0.018,0.748c0.011,0.34,0.051,0.695,0.119,1.07
		c0.067,0.373,0.175,0.691,0.322,0.951C106.857,150.035,107.067,150.166,107.339,150.166z"/>
	<path fill="#666666" d="M117.777,152.953c-0.317,0-0.584-0.119-0.799-0.357c-0.216-0.238-0.323-0.641-0.323-1.207
		c0-0.09,0-0.186,0-0.289c0-0.102,0.011-0.209,0.034-0.322c0.045-0.408,0.096-0.975,0.152-1.699
		c0.057-0.727,0.103-1.543,0.137-2.449c0.033-0.906,0.051-1.813,0.051-2.721c0-0.951-0.029-1.852-0.085-2.701
		c-0.057-0.852-0.153-1.525-0.289-2.023c0.181-0.045,0.419-0.17,0.714-0.375c0.294-0.203,0.601-0.34,0.918-0.408
		c0.068-0.021,0.158-0.033,0.272-0.033c0.385,0,0.629,0.203,0.73,0.611c0.103,0.408,0.153,0.908,0.153,1.496
		c0,0.408-0.006,0.891-0.018,1.445c-0.012,0.557-0.039,1.037-0.085,1.445c0.249-0.725,0.521-1.354,0.816-1.887
		c0.294-0.533,0.612-1.049,0.952-1.547c0.34-0.521,0.702-1.037,1.088-1.547c0.385-0.51,0.906-0.766,1.563-0.766
		c0.681,0,1.122,0.227,1.326,0.68s0.307,0.953,0.307,1.496c0,0.295-0.012,0.572-0.034,0.834c-0.023,0.26-0.046,0.504-0.068,0.73
		c0,0.158-0.034,0.572-0.102,1.24c-0.068,0.67-0.137,1.451-0.204,2.346c-0.068,0.896-0.103,1.797-0.103,2.703
		c0,0.25,0.012,0.596,0.034,1.037c0.022,0.443,0.068,0.885,0.136,1.326c0.068,0.443,0.188,0.816,0.357,1.123
		c0.17,0.305,0.402,0.459,0.697,0.459c0.181,0,0.385-0.068,0.611-0.205c0.25-0.182,0.471-0.418,0.663-0.713s0.346-0.59,0.459-0.885
		c0.091-0.203,0.182-0.43,0.272-0.68c0.09-0.25,0.17-0.51,0.238-0.781c0.09-0.273,0.215-0.408,0.374-0.408
		c0.112,0,0.17,0.113,0.17,0.34v0.135c0,0.16-0.029,0.363-0.085,0.613c-0.058,0.25-0.131,0.498-0.222,0.748
		c-0.271,0.838-0.675,1.568-1.207,2.191c-0.532,0.625-1.274,0.936-2.227,0.936c-0.635,0-1.128-0.242-1.479-0.73
		c-0.352-0.486-0.606-1.117-0.765-1.887c-0.091-0.432-0.153-0.861-0.187-1.293c-0.034-0.43-0.052-0.861-0.052-1.291
		c0-1.066,0.073-2.125,0.222-3.18c0.146-1.055,0.221-2.068,0.221-3.043c0-0.316-0.04-0.617-0.119-0.9
		c-0.08-0.283-0.255-0.426-0.527-0.426c-0.271,0-0.601,0.262-0.985,0.783c-0.386,0.498-0.782,1.229-1.19,2.191
		c-0.408,0.965-0.748,2.053-1.02,3.266c-0.272,1.213-0.408,2.453-0.408,3.723c0,0.77,0.068,1.553,0.204,2.346
		c-0.159,0.113-0.363,0.227-0.612,0.34C118.207,152.896,117.981,152.953,117.777,152.953z"/>
	<path fill="#666666" d="M145.316,154.688c-0.521,0-1.043-0.205-1.564-0.613c-0.521-0.406-0.896-1.031-1.121-1.869
		c-0.228-0.861-0.387-1.854-0.477-2.975c-0.091-1.123-0.136-2.307-0.136-3.553c0-1.77,0.079-3.576,0.237-5.424
		s0.369-3.598,0.629-5.252c0.261-1.654,0.539-3.049,0.834-4.184c-0.387,0.068-0.737,0.125-1.055,0.17
		c-0.317,0.047-0.59,0.092-0.816,0.137c-1.155,0.205-2.204,0.441-3.145,0.715c-0.94,0.271-1.688,0.578-2.244,0.918
		s-0.833,0.725-0.833,1.156c0,0.135,0.057,0.316,0.17,0.543c0.045,0.092,0.068,0.17,0.068,0.238c0,0.158-0.068,0.238-0.204,0.238
		c-0.182,0-0.408-0.137-0.68-0.408c-0.204-0.182-0.38-0.477-0.527-0.885s-0.221-0.816-0.221-1.223c0-0.59,0.158-1.043,0.476-1.361
		c0.408-0.408,1.195-0.77,2.363-1.088c1.167-0.316,2.487-0.578,3.961-0.781c0.521-0.068,1.224-0.137,2.108-0.205
		c0.884-0.066,1.847-0.102,2.89-0.102c1.337,0,2.72,0.08,4.147,0.238c1.429,0.158,2.76,0.432,3.996,0.816
		c1.234,0.385,2.238,0.936,3.008,1.648c0.771,0.715,1.156,1.627,1.156,2.736c0,1.248-0.295,2.467-0.883,3.656
		c-0.59,1.189-1.418,2.26-2.482,3.213c-1.066,0.951-2.313,1.705-3.74,2.26c-1.428,0.557-2.98,0.834-4.658,0.834
		c-0.363,0-0.72-0.012-1.07-0.033c-0.352-0.023-0.721-0.068-1.105-0.137c-0.046,0.432-0.08,0.861-0.102,1.291
		c-0.023,0.432-0.047,0.852-0.068,1.26c0,0.227-0.006,0.475-0.018,0.748c-0.012,0.271-0.017,0.555-0.017,0.85
		c0,0.748,0.04,1.508,0.119,2.277c0.079,0.771,0.231,1.41,0.459,1.922c0.226,0.51,0.566,0.764,1.021,0.764
		c0.226,0,0.464-0.045,0.713-0.135c0.25-0.092,0.408-0.182,0.477-0.273h0.238c-0.046,0.613-0.256,1.076-0.629,1.395
		C146.217,154.527,145.793,154.688,145.316,154.688z M144.534,142.719h0.442c1.337,0,2.708-0.221,4.113-0.662
		c1.406-0.443,2.697-1.061,3.877-1.854c1.178-0.793,2.13-1.729,2.855-2.805c0.725-1.076,1.088-2.25,1.088-3.52
		c0-0.93-0.357-1.643-1.07-2.143c-0.715-0.498-1.639-0.844-2.771-1.037c-1.134-0.191-2.335-0.287-3.604-0.287
		c-0.5,0-0.998,0.01-1.496,0.033c-0.499,0.023-0.986,0.057-1.463,0.102l0.103,0.205c-0.067,0.295-0.187,0.832-0.356,1.613
		c-0.17,0.783-0.363,1.725-0.578,2.822c-0.217,1.1-0.426,2.295-0.629,3.588C144.84,140.066,144.67,141.383,144.534,142.719z"/>
	<path fill="#666666" d="M160.957,153.021c-0.771,0-1.4-0.205-1.888-0.613c-0.487-0.406-0.862-0.939-1.122-1.598
		c-0.261-0.656-0.441-1.377-0.544-2.158s-0.153-1.547-0.153-2.295c0-0.566,0.022-1.094,0.068-1.582
		c0.045-0.486,0.079-0.912,0.102-1.273c0.113-0.953,0.363-1.91,0.748-2.873c0.386-0.965,0.952-1.77,1.7-2.414
		c0.748-0.646,1.734-0.969,2.958-0.969c0.838,0,1.49,0.271,1.955,0.814c0.465,0.545,0.793,1.254,0.986,2.125
		c0.191,0.873,0.289,1.785,0.289,2.738c0,0.951-0.063,1.875-0.188,2.77c-0.125,0.896-0.267,1.615-0.425,2.16
		c-0.182,0.703-0.476,1.457-0.884,2.26c-0.408,0.807-0.913,1.492-1.514,2.059S161.75,153.021,160.957,153.021z M162.078,151.15
		c0.477,0,0.879-0.225,1.207-0.68c0.328-0.453,0.606-0.975,0.833-1.564c0.227-0.588,0.386-1.088,0.476-1.494
		c0.091-0.363,0.164-0.816,0.222-1.361c0.056-0.543,0.085-1.121,0.085-1.734c0-0.928-0.102-1.84-0.307-2.736
		c-0.203-0.895-0.578-1.523-1.121-1.887c-0.272-0.182-0.408-0.396-0.408-0.646c0-0.182,0.068-0.352,0.204-0.51
		s0.249-0.271,0.34-0.34c-0.228-0.158-0.442-0.238-0.646-0.238c-0.408,0-0.771,0.227-1.088,0.68c-0.318,0.455-0.584,0.998-0.8,1.633
		s-0.386,1.24-0.51,1.818c-0.125,0.578-0.198,0.98-0.222,1.207c-0.022,0.25-0.057,0.629-0.102,1.139s-0.068,1.072-0.068,1.684
		c0,0.771,0.051,1.541,0.153,2.313c0.103,0.77,0.289,1.416,0.562,1.938C161.16,150.891,161.557,151.15,162.078,151.15z"/>
	<path fill="#666666" d="M174.045,152.852c-0.748,0-1.337-0.244-1.768-0.73c-0.431-0.488-0.73-1.123-0.9-1.904
		c-0.17-0.783-0.256-1.627-0.256-2.533c0-0.975,0.063-1.932,0.188-2.873s0.26-1.773,0.408-2.5c0.146-0.725,0.255-1.223,0.322-1.496
		c-0.635-0.045-1.133-0.146-1.496-0.305c-0.362-0.158-0.668-0.352-0.918-0.578c-0.09,1.088-0.232,2.256-0.424,3.502
		c-0.193,1.246-0.414,2.441-0.664,3.586c-0.249,1.145-0.521,2.125-0.815,2.941c-0.091,0.295-0.238,0.441-0.442,0.441
		c-0.158,0-0.238-0.102-0.238-0.305c0-0.045,0.006-0.102,0.018-0.17s0.028-0.137,0.051-0.205c0.362-1.041,0.668-2.182,0.918-3.416
		c0.25-1.236,0.442-2.432,0.578-3.588c0.137-1.156,0.204-2.119,0.204-2.889v-0.375c-0.567-0.25-0.98-0.611-1.241-1.088
		s-0.391-0.93-0.391-1.359c0-0.318,0.063-0.602,0.188-0.852c0.123-0.248,0.311-0.373,0.561-0.373h0.068
		c0.316,0,0.6,0.221,0.85,0.662c0.249,0.443,0.453,0.93,0.611,1.463s0.238,0.957,0.238,1.275c0.272,0.203,0.572,0.352,0.901,0.441
		c0.328,0.092,0.606,0.137,0.833,0.137c0.294,0,0.486-0.045,0.578-0.137c0.181-0.182,0.402-0.441,0.662-0.781
		c0.261-0.34,0.675-0.51,1.242-0.51c0.385,0,0.85,0.113,1.394,0.34c-0.272,0.566-0.522,1.207-0.748,1.92
		c-0.228,0.715-0.42,1.469-0.578,2.262c-0.022,0.182-0.079,0.543-0.17,1.088c-0.091,0.543-0.17,1.168-0.237,1.869
		c-0.068,0.703-0.103,1.406-0.103,2.109c0,0.996,0.106,1.875,0.323,2.635c0.215,0.76,0.617,1.139,1.207,1.139
		c0.361,0,0.68-0.146,0.951-0.441c0.272-0.295,0.51-0.664,0.715-1.105c0.203-0.441,0.373-0.873,0.51-1.293
		c0.136-0.418,0.238-0.752,0.306-1.002c0.046-0.205,0.136-0.307,0.272-0.307c0.113,0,0.17,0.125,0.17,0.375v0.17
		c0,1.043-0.188,1.92-0.562,2.635c-0.374,0.713-0.855,1.246-1.444,1.598C175.326,152.676,174.703,152.852,174.045,152.852z"/>
	<path fill="#666666" d="M180.642,152.852c-0.681,0-1.229-0.215-1.649-0.646c-0.42-0.43-0.742-0.975-0.969-1.633
		c-0.227-0.656-0.38-1.336-0.459-2.039c-0.08-0.703-0.119-1.326-0.119-1.869v-0.512c0.022-0.271,0.045-0.781,0.068-1.529
		c0.021-0.748,0.057-1.627,0.102-2.635s0.113-2.035,0.204-3.076h-1.054c-0.182,0-0.272-0.113-0.272-0.342
		c0-0.113,0.04-0.23,0.119-0.355s0.175-0.188,0.289-0.188h0.985c0.091-1.064,0.193-2.029,0.307-2.891s0.249-1.473,0.408-1.836
		c0.113-0.248,0.316-0.471,0.611-0.662c0.295-0.193,0.691-0.289,1.19-0.289c0.136,0,0.289,0.012,0.459,0.033
		c0.17,0.023,0.335,0.057,0.493,0.102c-0.113,0.387-0.244,1.084-0.391,2.092c-0.148,1.01-0.278,2.158-0.392,3.451h2.72
		c0.205,0,0.307,0.125,0.307,0.373c0,0.115-0.034,0.229-0.102,0.34c-0.068,0.115-0.17,0.172-0.307,0.172h-2.721
		c-0.113,1.246-0.203,2.531-0.271,3.857s-0.113,2.545-0.136,3.656v0.781c0,0.59,0.022,1.236,0.067,1.938
		c0.046,0.703,0.158,1.305,0.34,1.803s0.453,0.748,0.816,0.748h0.034c0.181,0,0.38-0.09,0.595-0.271s0.447-0.521,0.697-1.021
		c0.182-0.316,0.346-0.695,0.493-1.139c0.147-0.441,0.3-0.912,0.459-1.41c0.091-0.205,0.181-0.307,0.272-0.307
		c0.113,0,0.17,0.137,0.17,0.408v0.137c-0.046,0.59-0.205,1.258-0.477,2.006s-0.652,1.393-1.139,1.938
		C181.904,152.58,181.321,152.852,180.642,152.852z"/>
	<path fill="#666666" d="M188.053,163.834c-0.816,0-1.462-0.188-1.938-0.563c-0.477-0.373-0.839-0.85-1.088-1.428
		c-0.25-0.578-0.432-1.201-0.545-1.869c-0.113-0.67-0.192-1.309-0.237-1.922c-0.022-0.385-0.046-1.064-0.067-2.039
		c-0.023-0.975-0.035-2.131-0.035-3.469c0-0.453,0-0.969,0-1.547s0.012-1.348,0.035-2.313c0.021-0.963,0.045-2.248,0.067-3.857
		c0.022-0.998,0.067-2.125,0.136-3.385c0.068-1.258,0.176-2.549,0.323-3.875s0.34-2.619,0.578-3.877
		c0.237-1.258,0.532-2.385,0.884-3.383c0.352-0.996,0.782-1.789,1.292-2.379c0.511-0.59,1.104-0.885,1.785-0.885
		c0.566,0,1.021,0.182,1.36,0.545c0.34,0.361,0.589,0.799,0.748,1.309c0.158,0.51,0.237,0.992,0.237,1.445
		c0,1.043-0.153,2.215-0.459,3.518c-0.306,1.305-0.714,2.658-1.224,4.064c-0.51,1.404-1.061,2.787-1.649,4.146
		c-0.589,1.361-1.167,2.619-1.733,3.775c-0.023,0.227-0.04,0.447-0.051,0.662c-0.012,0.217-0.018,0.438-0.018,0.664
		c0.975,0.045,1.796,0.361,2.465,0.951c0.668,0.59,1.201,1.338,1.598,2.244s0.681,1.875,0.851,2.906s0.255,2,0.255,2.908
		c0,1.359-0.137,2.617-0.408,3.773s-0.674,2.092-1.207,2.805C189.475,163.477,188.823,163.834,188.053,163.834z M188.087,163.152
		c0.408,0,0.771-0.248,1.088-0.748c0.317-0.498,0.566-1.154,0.748-1.971c0.181-0.816,0.272-1.713,0.272-2.686
		c0-0.816-0.034-1.74-0.102-2.771c-0.068-1.031-0.228-2.047-0.477-3.043c-0.25-0.998-0.629-1.859-1.139-2.584
		c-0.51-0.727-1.207-1.18-2.092-1.361c-0.068,1.52-0.102,2.992-0.102,4.42c0,2.063,0.073,3.904,0.221,5.525s0.357,2.896,0.629,3.826
		C187.407,162.688,187.725,163.152,188.087,163.152z M186.659,143.807c0.793-1.699,1.495-3.422,2.108-5.168
		c0.611-1.744,1.088-3.547,1.428-5.406c0.09-0.498,0.164-0.979,0.221-1.443s0.085-0.879,0.085-1.242
		c0-0.453-0.046-0.816-0.136-1.088c-0.091-0.271-0.227-0.42-0.408-0.441h-0.034c-0.272,0-0.532,0.244-0.782,0.73
		c-0.25,0.488-0.465,1.129-0.646,1.922c-0.431,1.926-0.8,3.922-1.104,5.982C187.084,139.717,186.84,141.768,186.659,143.807z"/>
	<path fill="#666666" d="M195.635,153.021c-0.771,0-1.4-0.205-1.887-0.613c-0.488-0.406-0.862-0.939-1.123-1.598
		c-0.26-0.656-0.441-1.377-0.543-2.158c-0.103-0.781-0.153-1.547-0.153-2.295c0-0.566,0.022-1.094,0.067-1.582
		c0.045-0.486,0.08-0.912,0.103-1.273c0.113-0.953,0.362-1.91,0.748-2.873c0.386-0.965,0.952-1.77,1.7-2.414
		c0.748-0.646,1.734-0.969,2.957-0.969c0.839,0,1.49,0.271,1.955,0.814c0.465,0.545,0.794,1.254,0.986,2.125
		c0.192,0.873,0.289,1.785,0.289,2.738c0,0.951-0.063,1.875-0.188,2.77c-0.124,0.896-0.266,1.615-0.424,2.16
		c-0.182,0.703-0.477,1.457-0.885,2.26c-0.408,0.807-0.912,1.492-1.513,2.059S196.428,153.021,195.635,153.021z M196.756,151.15
		c0.477,0,0.879-0.225,1.207-0.68c0.329-0.453,0.607-0.975,0.834-1.564c0.227-0.588,0.385-1.088,0.476-1.494
		c0.091-0.363,0.164-0.816,0.222-1.361c0.056-0.543,0.084-1.121,0.084-1.734c0-0.928-0.102-1.84-0.306-2.736
		c-0.204-0.895-0.578-1.523-1.122-1.887c-0.271-0.182-0.408-0.396-0.408-0.646c0-0.182,0.068-0.352,0.205-0.51
		c0.135-0.158,0.248-0.271,0.34-0.34c-0.228-0.158-0.442-0.238-0.646-0.238c-0.408,0-0.771,0.227-1.088,0.68
		c-0.318,0.455-0.584,0.998-0.799,1.633c-0.216,0.635-0.387,1.24-0.51,1.818c-0.125,0.578-0.199,0.98-0.222,1.207
		c-0.022,0.25-0.057,0.629-0.103,1.139c-0.045,0.51-0.067,1.072-0.067,1.684c0,0.771,0.051,1.541,0.153,2.313
		c0.102,0.77,0.289,1.416,0.561,1.938S196.234,151.15,196.756,151.15z"/>
	<path fill="#666666" d="M206.275,152.816c-0.815,0-1.461-0.26-1.938-0.781s-0.828-1.15-1.054-1.887
		c-0.228-0.736-0.362-1.422-0.408-2.057c-0.046-0.613-0.079-1.264-0.103-1.955c-0.022-0.691-0.033-1.422-0.033-2.193
		c0-1.406,0.039-2.855,0.119-4.352c0.078-1.496,0.203-2.953,0.373-4.369s0.38-2.68,0.629-3.791c0.137-0.566,0.352-1.213,0.646-1.939
		c0.295-0.725,0.68-1.354,1.156-1.887c0.477-0.531,1.043-0.799,1.699-0.799c1.338,0,2.007,1.01,2.007,3.027
		c0,0.793-0.131,1.932-0.392,3.416c-0.26,1.484-0.73,3.145-1.41,4.98c-0.34,0.953-0.743,1.91-1.207,2.873
		c-0.465,0.965-0.924,1.842-1.377,2.635c-0.023,0.182-0.034,0.369-0.034,0.563c0,0.191,0,0.379,0,0.561
		c0,0.771,0.028,1.553,0.085,2.346s0.158,1.525,0.306,2.193s0.357,1.207,0.63,1.615c0.271,0.408,0.623,0.611,1.053,0.611
		c0.499,0,0.901-0.209,1.207-0.629c0.307-0.42,0.539-0.82,0.697-1.207c0.091-0.203,0.176-0.43,0.256-0.68
		c0.078-0.25,0.164-0.51,0.254-0.781c0.091-0.25,0.216-0.375,0.375-0.375c0.113,0,0.17,0.125,0.17,0.375v0.066
		c0,0.16-0.029,0.363-0.086,0.613s-0.131,0.498-0.221,0.748c-0.271,0.838-0.668,1.559-1.189,2.158
		C207.965,152.518,207.229,152.816,206.275,152.816z M205.018,142.277c0.59-1.201,1.134-2.477,1.633-3.824
		c0.498-1.35,0.9-2.682,1.207-3.996c0.306-1.314,0.459-2.504,0.459-3.57c0-0.656-0.051-1.201-0.153-1.631
		c-0.103-0.432-0.289-0.646-0.562-0.646c-0.249,0-0.481,0.254-0.697,0.766c-0.215,0.51-0.413,1.184-0.594,2.021
		c-0.182,0.84-0.346,1.74-0.494,2.703c-0.146,0.965-0.271,1.916-0.373,2.857c-0.103,0.939-0.182,1.768-0.238,2.48
		c-0.057,0.715-0.097,1.23-0.119,1.547c0,0.137-0.006,0.313-0.018,0.527C205.057,141.729,205.041,141.982,205.018,142.277z"/>
	<path fill="#666666" d="M212.566,152.852c-0.816,0-1.457-0.346-1.922-1.037s-0.793-1.576-0.986-2.652
		c-0.192-1.076-0.289-2.205-0.289-3.383c0-0.975,0.052-1.922,0.154-2.84c0.102-0.918,0.226-1.721,0.373-2.414
		c0.147-0.689,0.289-1.184,0.426-1.479c0.136-0.271,0.356-0.527,0.662-0.766c0.307-0.236,0.72-0.355,1.241-0.355
		c0.294,0,0.589,0.033,0.884,0.102c-0.227,0.793-0.498,1.893-0.815,3.297c-0.317,1.406-0.476,2.959-0.476,4.658
		c0,0.59,0.011,1.219,0.033,1.889c0.022,0.668,0.08,1.291,0.17,1.869c0.091,0.578,0.232,1.049,0.426,1.41
		c0.191,0.363,0.447,0.545,0.765,0.545h0.034c0.181,0,0.379-0.09,0.595-0.271s0.447-0.521,0.696-1.021
		c0.341-0.656,0.658-1.506,0.953-2.549c0.045-0.205,0.136-0.307,0.271-0.307c0.113,0,0.17,0.137,0.17,0.408v0.137
		c-0.045,0.59-0.203,1.258-0.476,2.006s-0.651,1.393-1.14,1.938C213.829,152.58,213.246,152.852,212.566,152.852z M212.804,135.477
		c-0.431,0-0.811-0.158-1.139-0.475c-0.329-0.318-0.493-0.703-0.493-1.156s0.164-0.838,0.493-1.156
		c0.328-0.318,0.708-0.477,1.139-0.477c0.453,0,0.839,0.158,1.156,0.477s0.476,0.703,0.476,1.156s-0.158,0.838-0.476,1.156
		C213.643,135.318,213.257,135.477,212.804,135.477z"/>
	<path fill="#666666" d="M219.298,153.021c-0.771,0-1.399-0.205-1.888-0.613c-0.487-0.406-0.861-0.939-1.121-1.598
		c-0.262-0.656-0.442-1.377-0.545-2.158c-0.102-0.781-0.152-1.547-0.152-2.295c0-0.566,0.021-1.094,0.068-1.582
		c0.045-0.486,0.078-0.912,0.102-1.273c0.113-0.953,0.362-1.91,0.748-2.873c0.385-0.965,0.951-1.77,1.699-2.414
		c0.748-0.646,1.734-0.969,2.959-0.969c0.838,0,1.49,0.271,1.955,0.814c0.464,0.545,0.793,1.254,0.986,2.125
		c0.191,0.873,0.288,1.785,0.288,2.738c0,0.951-0.063,1.875-0.187,2.77c-0.125,0.896-0.268,1.615-0.426,2.16
		c-0.182,0.703-0.476,1.457-0.883,2.26c-0.408,0.807-0.914,1.492-1.514,2.059C220.787,152.738,220.091,153.021,219.298,153.021z
		 M220.42,151.15c0.476,0,0.878-0.225,1.207-0.68c0.328-0.453,0.605-0.975,0.832-1.564c0.227-0.588,0.386-1.088,0.477-1.494
		c0.09-0.363,0.164-0.816,0.221-1.361c0.057-0.543,0.086-1.121,0.086-1.734c0-0.928-0.103-1.84-0.307-2.736
		c-0.204-0.895-0.578-1.523-1.122-1.887c-0.272-0.182-0.407-0.396-0.407-0.646c0-0.182,0.067-0.352,0.203-0.51
		c0.137-0.158,0.25-0.271,0.34-0.34c-0.227-0.158-0.441-0.238-0.646-0.238c-0.408,0-0.771,0.227-1.088,0.68
		c-0.317,0.455-0.584,0.998-0.8,1.633c-0.215,0.635-0.385,1.24-0.51,1.818s-0.198,0.98-0.221,1.207
		c-0.023,0.25-0.057,0.629-0.102,1.139c-0.046,0.51-0.068,1.072-0.068,1.684c0,0.771,0.051,1.541,0.152,2.313
		c0.103,0.77,0.289,1.416,0.562,1.938S219.898,151.15,220.42,151.15z"/>
</g>
</svg>
