<?xml version="1.0" encoding="utf-8"?>
<!-- Generator: Adobe Illustrator 16.0.0, SVG Export Plug-In . SVG Version: 6.00 Build 0)  -->
<!DOCTYPE svg PUBLIC "-//W3C//DTD SVG 1.1//EN" "http://www.w3.org/Graphics/SVG/1.1/DTD/svg11.dtd">
<svg version="1.1" id="圖層_1" xmlns="http://www.w3.org/2000/svg" xmlns:xlink="http://www.w3.org/1999/xlink" x="0px" y="0px"
	 width="274px" height="98px" viewBox="0 0 274 98" enable-background="new 0 0 274 98" xml:space="preserve">
<g>
	<g>
		<g id="XMLID_138_">
			<path fill="#666666" d="M57.636,36.13c14.646-9.572,9.644-28.735-6.817-31.868C30.335,0.366,9.128,16.355,5.253,36.491
				c-2.099,10.914,1.559,20.933,4.873,31.142c1.418,4.367,2.702,8.892,3.135,13.483c0.549,5.813-1.465,6.167,3.745,8.832
				c14.129,7.227,22.761,3.003,36.505-2.389c-10.377,10.426-22.366,13.614-36.067,6.953c-3.255-1.585-4.421-4.243-6.889-1.255
				c-1.854,2.245-4.75,3.924-7.722,2.854c-7.997-2.878,2.9-10.261,8.489-8.434c0-15.873-12.08-28.864-10.836-45.074
				C1.631,27.678,11.666,14.261,24.224,6.79c11.53-6.864,31.588-11.205,41.732,0.481c3.894,4.486,5.077,11.316,3.107,16.917
				C67.661,28.175,61.714,37.093,57.636,36.13z M5.909,93.221c1.977-0.093,3.42-1.017,4.331-2.771
				C4.786,87.916,1.024,93.221,5.909,93.221z"/>
		</g>
	</g>
	<g id="XMLID_136_">
		<g id="XMLID_137_">
			<path fill="#666666" d="M58.956,55.623c1.867-7.37,21.187-22.817,33.6-13.38C78.135,35.56,62.735,48.673,58.956,55.623z"/>
		</g>
	</g>
	<g id="XMLID_134_">
		<g id="XMLID_135_">
			<path fill="#666666" d="M58.956,58.547c8.82-5.048,25.527-9.967,32.2,3.184C82.102,49.886,68.616,55.623,58.956,58.547z"/>
		</g>
	</g>
	<g id="XMLID_132_">
		<g id="XMLID_133_">
			<path fill="#666666" d="M58.956,62.999c10.08-1.75,27.401-0.046,27.278,14.752C83.829,63.466,68.896,63.559,58.956,62.999z"/>
		</g>
	</g>
	<g id="XMLID_128_">
		<g id="XMLID_129_">
			<path fill="#666666" d="M39.999,62.948c1.281-1.617,1.884-4.079,1.12-7.223c-1.071-4.406-4.144-6.225-6.984-6.002
				c5.646-1.788,13.637,1.205,13.685,1.229c-11.374-5.919-22.662-1.272-25.63,13.104c11.012,5,23.293,2.178,25.63-13.104
				C47.811,50.985,45.183,60.068,39.999,62.948z M22.933,63.702c1.396-5.192,4.551-9.992,6.805-11.463
				c-1.08,1.543-1.555,3.741-0.891,6.47c0.936,3.854,3.228,5.855,5.605,6.315C30.999,65.54,28.26,65.252,22.933,63.702z"/>
		</g>
	</g>
	<g>
		<path fill="#666666" d="M79.232,81.471c-1.045-0.567-1.271-2.091-1.959-3.177c-1.012-1.596-2.372-2.975-3.973-3.998
			c-0.659-0.419-1.351-0.776-2.077-1.069c0.48-0.793,0.561-1.926-0.054-2.687c-0.686-0.851-1.845-0.614-2.483,0.137
			c-1.251,1.475,0.419,1.683-1.907,1.607c-2.125-0.068-4.253,0.403-6.158,1.333c-1.125,0.55-2.172,1.256-3.098,2.095
			c-0.122,0.039-1.602-0.228-1.456-0.236c-1.62,0.094-2.868,1.556-2.692,3.158c0.208,1.899,1.009,1.037,0.427,3.182
			c-0.286,1.058-0.438,2.151-0.448,3.245c-0.067,8.223,7.951,14.553,16.034,12.573c3.803-0.93,7.051-3.584,8.689-7.106
			c0.312-0.67,0.563-1.36,0.755-2.073c0.58-2.142,0.838-1,1.979-2.542C81.992,84.314,81.155,81.981,79.232,81.471z M61.567,77.665
			c1.412-1.407,2.869,0.143,1.532,1.543C61.725,80.647,60.178,79.048,61.567,77.665C61.97,77.263,61.163,78.068,61.567,77.665z
			 M71.165,89.492c0.912-1.88,5.288-6.873,3.527-7.442c-1.62-0.523-4.239,2.434-4.813,3.188c-1.164,1.53-2.19,3.162-3.167,4.814
			c-1.477,2.494-1.318,2.174-3.876,2.51c1.76-2.821,3.763-5.629,5.166-8.646c1.041-2.239-0.426-2.251-1.785-0.678
			c-1.104,1.279-2.092,2.664-3.075,4.031c-1.29,1.792-3.015,4.699-5.318,5.391c-3.09,0.929-2.676-3.062-1.903-4.62
			c0.742-1.493,1.652-2.919,2.49-4.36c1.265-2.176,1.155-1.62,3.585-1.971c-1.168,1.945-2.337,3.891-3.506,5.836
			c-0.814,1.353-3.068,6.854,0.318,4.334c2.857-2.124,4.596-5.561,6.857-8.257c3.505-4.179,4.981-0.943,2.951,2.571
			c1.222-2.149,3.04-4.643,5.505-4.643c3.831,0,1.121,5.178,0.234,6.525c-0.351,0.53-3.359,5.676-0.303,3.647
			c1.611-1.07,4.713-4.784,5.467-5.753c0.14-0.182-2.544,3.734-2.717,3.958C73.562,94.125,69.193,93.554,71.165,89.492z"/>
	</g>
</g>
<g>
	<path fill="#666666" d="M111.038,41.487c0.406,0,1.157,0.588,2.253,1.766c0.934,1.096,1.401,1.888,1.401,2.375
		c0,0.406-0.162,0.73-0.487,0.974c-0.365,0.649-0.751,1.279-1.157,1.888c2.558,1.055,4.344,1.887,5.358,2.496
		c0.772,0.447,1.158,0.854,1.158,1.219c0,1.299-0.102,2.416-0.304,3.35c-0.122,0.689-0.427,1.035-0.914,1.035
		c-0.204,0-0.487-0.244-0.853-0.73c-1.583-2.031-3.329-3.979-5.237-5.847l-0.061-0.061c-2.111,3.736-4.527,7.064-7.247,9.988
		c-2.111,2.354-4.852,4.993-8.221,7.916c-0.487,0.488-0.832,0.73-1.035,0.73c-0.163,0-0.244-0.264-0.244-0.791
		c0-0.203,0.183-0.447,0.548-0.73c3.085-3.207,5.542-6.172,7.369-8.892c2.151-3.004,3.877-5.988,5.176-8.952
		c1.096-2.274,1.847-4.669,2.253-7.186C110.835,41.67,110.917,41.487,111.038,41.487z M116.641,66.334
		c0.243,0,0.954,0.486,2.131,1.461c1.016,0.934,1.523,1.502,1.523,1.705c0,0.609-0.366,1.137-1.097,1.583
		c-2.152,1.745-3.816,3.694-4.994,5.847c-1.339,2.07-2.578,3.998-3.715,5.785c0.731,0.446,1.421,0.893,2.07,1.34
		c0.935,0.649,1.401,1.156,1.401,1.521c0,0.813-0.081,2.051-0.243,3.715c-0.163,1.26-0.406,1.889-0.731,1.889
		c-0.203,0-0.406-0.244-0.609-0.73c-1.259-2.436-3.674-5.502-7.247-9.196c-0.284-0.325-0.426-0.589-0.426-0.792
		c0-0.243,0.081-0.405,0.243-0.486c0.325,0,0.731,0.121,1.218,0.365c1.056,0.527,2.071,1.076,3.045,1.645
		c0.04-0.163,0.101-0.305,0.183-0.427l4.141-9.5l-8.038,1.157c-0.568,0.082-1.015,0.183-1.34,0.305
		c-0.324,0.121-0.548,0.182-0.669,0.182c-0.446,0-1.056-0.365-1.827-1.096c-0.894-0.853-1.34-1.38-1.34-1.583
		c0-0.366,0.244-0.548,0.731-0.548l10.961-0.975c1.177-0.082,2.151-0.568,2.923-1.461C115.788,66.901,116.356,66.334,116.641,66.334
		z M108.603,58.111c0.162,0,0.365,0.041,0.609,0.123c1.746,0.975,2.943,1.745,3.593,2.313c0.446,0.325,0.669,0.63,0.669,0.914
		c0,1.421-0.102,2.659-0.304,3.714c-0.122,0.771-0.427,1.158-0.914,1.158c-0.081,0-0.224-0.225-0.426-0.671
		c-0.813-1.989-1.706-3.856-2.68-5.603c-0.528-0.852-0.792-1.441-0.792-1.766C108.358,58.173,108.44,58.111,108.603,58.111z
		 M127.846,69.5c0.162,0,0.244,0.081,0.244,0.244c0,0.243-0.082,0.406-0.244,0.486l-6.272,8.282
		c-0.163,0.204-0.264,0.304-0.305,0.304c-0.487,0-1.218-0.264-2.192-0.791c-1.137-0.406-1.705-0.73-1.705-0.974
		c0-0.163,0.162-0.325,0.487-0.487l9.682-6.942C127.663,69.541,127.765,69.5,127.846,69.5z M130.769,46.358
		c0.326,0,0.935,0.325,1.827,0.975c1.096,0.771,1.685,1.34,1.766,1.705c0.243-0.04,0.507-0.081,0.792-0.121l4.384-0.609
		c1.583-0.081,2.801-0.649,3.653-1.705c0.527-0.812,1.017-1.218,1.463-1.218c0.364,0,1.056,0.345,2.069,1.035
		c1.26,0.853,1.949,1.482,2.07,1.888c-0.08,0.487-0.466,1.197-1.156,2.132c-0.853,0.852-1.279,1.766-1.279,2.74v37.025
		c0,2.152-0.183,3.797-0.548,4.934c-0.486,1.299-0.954,1.947-1.401,1.947c-0.243,0-0.486-0.243-0.73-0.73
		c-2.233-2.517-4.506-4.791-6.82-6.82c-0.163-0.162-0.244-0.324-0.244-0.486c0-0.528,0.081-0.793,0.244-0.793
		c0.203,0,0.386,0.041,0.548,0.123c1.341,0.405,2.762,0.812,4.263,1.217c0.245,0.082,0.508,0.123,0.793,0.123
		c0.201,0,0.324-0.406,0.364-1.219c0.082-1.827,0.122-3.938,0.122-6.334V51.109l-4.142,0.913c-0.812,0.162-1.379,0.324-1.704,0.487
		c-0.203,0.162-0.365,0.244-0.488,0.244c-0.568,0-1.359-0.427-2.375-1.279c-0.244-0.284-0.446-0.568-0.609-0.854
		c-0.081,0.123-0.163,0.244-0.244,0.365c-0.771,0.732-1.157,1.543-1.157,2.438v21.922l9.438-5.968
		c0.082-0.081,0.184-0.122,0.305-0.122c0.162,0,0.244,0.082,0.244,0.244c0,0.365-0.082,0.609-0.244,0.73l-5.602,7.308
		c-0.122,0.163-0.203,0.243-0.243,0.243c-0.528,0-1.36-0.243-2.498-0.729c-0.609-0.204-1.076-0.386-1.4-0.549v12.302
		c0,1.989-0.203,3.492-0.608,4.506c-0.447,1.178-0.894,1.767-1.34,1.767c-0.203,0-0.467-0.203-0.792-0.608
		c-2.151-2.559-4.324-4.873-6.516-6.943c-0.163-0.162-0.244-0.324-0.244-0.486c0-0.285,0.081-0.427,0.244-0.427
		c0.203,0,0.385,0.04,0.548,0.122c1.339,0.406,2.761,0.872,4.263,1.4c0.284,0.081,0.548,0.121,0.791,0.121
		c0.163,0,0.285-0.365,0.366-1.096c0.081-1.705,0.122-3.674,0.122-5.907V51.656l-3.592,0.914c-0.772,0.162-1.3,0.305-1.584,0.426
		c-0.163,0.123-0.304,0.184-0.426,0.184c-0.528,0-1.259-0.346-2.192-1.035c-0.649-0.65-0.974-1.259-0.974-1.827
		c0-0.163,0.243-0.243,0.73-0.243c0.285,0,0.65-0.062,1.097-0.183l4.019-0.853c1.462-0.081,2.558-0.589,3.289-1.522
		C129.917,46.745,130.363,46.358,130.769,46.358z M120.782,59.025c0.162,0,0.345,0.081,0.548,0.244
		c1.746,1.258,2.984,2.232,3.715,2.923c0.406,0.487,0.609,0.893,0.609,1.218c0,1.259-0.101,2.375-0.304,3.35
		c-0.122,0.689-0.427,1.035-0.914,1.035c-0.122,0-0.284-0.244-0.487-0.73c-0.771-2.07-1.665-4.039-2.679-5.907
		c-0.487-0.935-0.731-1.563-0.731-1.888C120.538,59.106,120.62,59.025,120.782,59.025z M134.971,58.295
		c0.162,0,0.386,0.102,0.67,0.305c1.381,0.812,2.64,1.766,3.776,2.862c0.568,0.405,0.852,0.73,0.852,0.974
		c0,0.731-0.183,1.727-0.548,2.984c-0.649,1.421-1.197,2.131-1.644,2.131c-0.203,0-0.366-0.242-0.487-0.73
		c-0.568-2.151-1.441-4.506-2.619-7.064c-0.203-0.405-0.305-0.73-0.305-0.975C134.666,58.457,134.768,58.295,134.971,58.295z"/>
	<path fill="#666666" d="M181.191,51.23c0.488,0,1.157,0.325,2.01,0.975c0.771,0.975,1.157,1.623,1.157,1.949
		c0,0.324-0.162,0.486-0.486,0.486c-3.491,0.406-7.368,0.914-11.632,1.523c-4.06,0.486-6.557,0.873-7.489,1.156
		c-0.366,0.203-0.651,0.305-0.854,0.305c-0.364,0-1.015-0.446-1.947-1.34c-0.813-0.813-1.218-1.359-1.218-1.645
		c0-0.324,0.242-0.486,0.729-0.486c3.29-0.244,5.542-0.467,6.76-0.671c1.544-0.202,2.984-0.386,4.324-0.548
		c1.989-0.324,3.613-0.608,4.872-0.853c1.056-0.122,1.928-0.304,2.618-0.548C180.644,51.332,181.029,51.23,181.191,51.23z
		 M176.808,59.27c0.486,0,1.138,0.345,1.948,1.035c0.812,0.934,1.218,1.563,1.218,1.888s-0.162,0.487-0.486,0.487
		c-2.031,0.324-4.264,0.711-6.699,1.156c-2.273,0.365-3.693,0.65-4.263,0.854c-0.244,0.121-0.406,0.182-0.486,0.182
		c-0.366,0-1.036-0.405-2.011-1.217c-0.771-0.854-1.157-1.422-1.157-1.706c0-0.324,0.243-0.486,0.731-0.486
		c1.867-0.163,3.146-0.325,3.836-0.487c0.854-0.163,1.686-0.305,2.497-0.427c1.097-0.284,2.01-0.487,2.74-0.608
		c0.609-0.122,1.097-0.265,1.462-0.427C176.504,59.351,176.727,59.27,176.808,59.27z M177.782,66.82
		c0.446,0,1.115,0.324,2.009,0.975c0.772,0.975,1.157,1.623,1.157,1.949c0,0.324-0.162,0.486-0.487,0.486
		c-2.151,0.324-4.567,0.711-7.246,1.157c-2.518,0.365-4.081,0.649-4.689,0.853c-0.203,0.121-0.365,0.184-0.486,0.184
		c-0.366,0-1.036-0.406-2.011-1.219c-0.771-0.853-1.157-1.421-1.157-1.705c0-0.324,0.243-0.487,0.731-0.487
		c2.03-0.163,3.431-0.325,4.201-0.487c0.935-0.162,1.827-0.305,2.681-0.426c1.218-0.244,2.191-0.447,2.922-0.609
		c0.69-0.121,1.26-0.264,1.707-0.426C177.477,66.901,177.7,66.82,177.782,66.82z M166.332,73.885c0.651,0,1.483,1.056,2.497,3.167
		c0.122,0.202,0.224,0.405,0.305,0.608l5.237-0.365c1.543-0.162,2.66-0.771,3.351-1.826c0.689-1.178,1.196-1.768,1.521-1.768
		c0.447,0,1.097,0.447,1.948,1.341c1.137,1.015,1.706,1.685,1.706,2.01c0,0.446-0.325,1.034-0.975,1.765
		c-0.568,0.69-0.894,1.503-0.975,2.437l-1.096,7.796c0.121,0.121,0.264,0.242,0.426,0.365c0.772,0.73,1.158,1.237,1.158,1.521
		c0,0.122-0.325,0.225-0.976,0.305c-3.613,0.324-6.982,0.629-10.109,0.914c0,1.055-0.183,2.07-0.548,3.045
		c0,0.243-0.263,0.365-0.791,0.365c-0.446,0-1.097-0.609-1.949-1.827c-0.608-1.178-0.913-2.111-0.913-2.802
		c0-0.406,0.081-0.75,0.243-1.035c0.366-1.015,0.549-2.74,0.549-5.176c0-2.03-0.163-4.264-0.487-6.699
		c-0.203-1.908-0.305-3.045-0.305-3.41C166.15,74.209,166.211,73.966,166.332,73.885z M169.257,41.73
		c0.284,0,0.628,0.102,1.035,0.305c1.826,0.69,3.531,1.502,5.114,2.436c0.771,0.406,1.157,0.71,1.157,0.913
		c0,0.812-0.202,1.949-0.609,3.411c-0.689,1.624-1.298,2.436-1.826,2.436c-0.365,0-0.649-0.244-0.853-0.73
		c-0.853-2.192-2.213-4.628-4.08-7.308c-0.284-0.406-0.427-0.71-0.427-0.914C168.769,41.913,168.933,41.73,169.257,41.73z
		 M170.292,89.291c2.964-0.283,5.095-0.527,6.394-0.73l0.548-8.646l-7.307,0.608c0.039,0.405,0.061,0.792,0.061,1.157
		C170.068,82.37,170.169,84.906,170.292,89.291z M202.872,66.334c0.202,0,0.792,0.588,1.765,1.766
		c0.772,0.853,1.158,1.4,1.158,1.645c0,0.283-0.285,0.73-0.852,1.339c-0.528,0.446-0.976,1.056-1.341,1.827
		c-2.314,4.588-4.71,8.485-7.186,11.692c-0.082,0.081-0.162,0.163-0.244,0.243c1.015,1.057,2.03,2.07,3.045,3.045
		c2.801,2.477,5.156,4.04,7.064,4.689c1.543,0.406,3.755,0.752,6.638,1.035c0.608,0.041,0.914,0.224,0.914,0.549
		c0,0.405-0.244,0.629-0.731,0.669c-5.562,0.975-8.525,1.462-8.891,1.462c-0.569,0-1.036-0.264-1.401-0.791
		c-2.598-3.168-5.277-6.151-8.039-8.953c-1.339,1.422-2.801,2.762-4.384,4.02c-1.381,1.056-3.187,2.213-5.421,3.471
		c-2.475,1.34-4.688,2.375-6.637,3.107c-1.381,0.567-2.214,0.852-2.496,0.852c-0.488,0-0.731-0.162-0.731-0.487
		c0-0.202,0.081-0.345,0.243-0.427c4.669-2.313,8.079-4.425,10.23-6.333c2.478-2.03,4.628-4.323,6.456-6.882
		c-3.532-3.653-6.029-6.028-7.49-7.124c-0.447-0.284-0.67-0.568-0.67-0.853c0-0.285,0.324-0.487,0.975-0.609
		c0.729-0.121,1.299-0.183,1.704-0.183c0.771,0,1.421,0.345,1.949,1.035c1.584,1.989,3.207,3.918,4.871,5.786
		c0.082-0.082,0.143-0.163,0.183-0.244c1.016-1.502,2.071-3.451,3.167-5.847c0.813-1.624,1.441-3.064,1.888-4.323
		c-1.623,0.284-3.369,0.589-5.237,0.914c-1.949,0.242-3.43,0.568-4.445,0.974c-0.487,0.203-0.872,0.304-1.157,0.304
		c-0.567,0-1.318-0.486-2.253-1.461c-0.771-1.015-1.157-1.686-1.157-2.01c0-0.162,0.162-0.243,0.488-0.243
		c4.709-0.406,8.688-0.812,11.936-1.218c1.502-0.203,2.841-0.589,4.019-1.157C201.856,66.76,202.547,66.334,202.872,66.334z
		 M186.795,42.522c0.203,0,0.853,0.833,1.949,2.498c0.324,0.487,0.608,0.934,0.852,1.339h4.02c1.624-0.284,2.862-0.893,3.714-1.827
		c1.056-1.056,1.686-1.583,1.889-1.583c0.284,0,0.934,0.447,1.948,1.34l1.462,1.34c0,0.243-0.386,0.812-1.156,1.705
		c-0.854,0.771-1.279,1.604-1.279,2.497c0,6.982,0.183,10.616,0.548,10.9c0.324,0.324,0.933,0.487,1.826,0.487
		c1.462,0,2.943-0.284,4.446-0.853c0.73-0.244,1.219-0.365,1.461-0.365c0.324,0,0.934,0.426,1.827,1.279
		c0.731,0.811,1.098,1.38,1.098,1.705c0,0.365-0.346,0.608-1.037,0.73c-4.303,0.609-7.164,0.913-8.586,0.913
		c-1.827,0-3.105-0.365-3.837-1.097c-0.729-0.975-1.117-5.846-1.156-14.614l-6.09,0.243c0,0.122,0,0.244,0,0.366
		c0,1.665-0.122,3.492-0.365,5.48c-0.203,1.503-0.689,3.146-1.462,4.934c-0.69,1.583-1.563,3.004-2.619,4.262
		c-0.852,1.098-1.989,2.193-3.409,3.289c-0.204,0.203-0.345,0.305-0.428,0.305c-0.324,0-0.486-0.244-0.486-0.73
		c0-0.163,0.062-0.346,0.183-0.549c0.771-0.934,1.401-1.807,1.888-2.618c0.569-0.853,1.056-1.888,1.463-3.106
		c0.527-1.582,0.912-3.105,1.156-4.566c0.284-1.706,0.426-3.837,0.426-6.395c0-1.015-0.142-2.334-0.426-3.958
		c-0.203-1.421-0.305-2.314-0.305-2.679C186.308,42.746,186.47,42.522,186.795,42.522z"/>
	<path fill="#666666" d="M244.1,51.475c0.324,0,1.095,0.548,2.313,1.645c1.178,1.055,1.767,1.745,1.767,2.07
		c0,0.283-0.244,0.426-0.731,0.426c-3.532,0.244-8.119,0.67-13.763,1.279c-4.953,0.527-7.652,0.873-8.099,1.035
		c-0.366,0.121-0.63,0.182-0.792,0.182c-0.649,0-1.523-0.547-2.618-1.644c-0.69-0.608-1.035-1.137-1.035-1.583
		c0-0.65,0.487-0.975,1.46-0.975c1.625,0,5.157-0.182,10.597-0.548c5.44-0.608,8.83-1.178,10.17-1.706
		C243.612,51.535,243.856,51.475,244.1,51.475z M239.897,60c0.446,0,1.076,0.283,1.888,0.853c0.689,0.771,1.035,1.3,1.035,1.583
		c0,0.527-0.08,0.791-0.244,0.791c-2.191,0.245-4.648,0.59-7.367,1.036c-2.559,0.365-4.161,0.67-4.813,0.913
		c-0.202,0.163-0.364,0.244-0.486,0.244c-0.325,0-0.934-0.406-1.826-1.219c-0.731-0.729-1.097-1.238-1.097-1.521
		c0-0.325,0.162-0.487,0.487-0.487c2.07-0.203,3.491-0.365,4.263-0.487c0.975-0.162,1.888-0.305,2.74-0.426
		c1.259-0.244,2.273-0.447,3.044-0.609c0.651-0.081,1.199-0.224,1.646-0.426C239.572,60.081,239.815,60,239.897,60z M240.141,67.309
		c0.446,0,1.076,0.283,1.888,0.852c0.691,0.771,1.036,1.299,1.036,1.584c0,0.486-0.082,0.73-0.244,0.73
		c-2.07,0.324-4.405,0.71-7.003,1.156c-2.396,0.365-3.857,0.65-4.384,0.854c-0.285,0.121-0.468,0.182-0.548,0.182
		c-0.326,0-0.936-0.385-1.829-1.156c-0.73-0.771-1.096-1.279-1.096-1.522c0-0.325,0.183-0.487,0.548-0.487
		c1.908-0.162,3.229-0.324,3.959-0.487c0.934-0.163,1.786-0.305,2.558-0.427c1.218-0.242,2.172-0.467,2.862-0.669
		c0.609-0.081,1.137-0.224,1.583-0.427C239.837,67.369,240.061,67.309,240.141,67.309z M228.692,73.701
		c0.364,0,0.974,0.67,1.827,2.01c0.243,0.447,0.486,0.934,0.73,1.462l5.725-0.792c1.421-0.162,2.436-0.711,3.044-1.644
		c0.568-1.015,1.015-1.522,1.341-1.522c0.446,0,1.055,0.386,1.827,1.156c1.056,0.854,1.583,1.441,1.583,1.767
		c0,0.405-0.284,0.934-0.854,1.583c-0.486,0.69-0.771,1.441-0.852,2.254l-1.036,7.734c0.163,0.121,0.366,0.283,0.609,0.486
		c0.772,0.73,1.158,1.238,1.158,1.523c0,0.162-0.327,0.283-0.976,0.364c-3.734,0.406-7.226,0.772-10.475,1.097v2.436
		c0,1.786-0.405,2.68-1.218,2.68c-0.406,0-0.934-0.589-1.583-1.766c-0.69-1.137-1.036-2.254-1.036-3.35
		c0-0.244,0.082-0.548,0.244-0.914c0.284-0.689,0.467-2.293,0.549-4.811c0-4.101-0.245-7.166-0.731-9.195
		c-0.244-1.218-0.365-1.929-0.365-2.131C228.205,73.844,228.367,73.701,228.692,73.701z M232.346,88.256
		c3.087-0.324,5.319-0.608,6.699-0.852l0.548-8.648l-7.612,0.975c0.203,1.219,0.325,2.619,0.365,4.202V88.256z M232.346,42.705
		c0.204,0,0.487,0.102,0.853,0.305c1.624,0.852,3.126,1.867,4.506,3.044c0.65,0.406,0.976,0.751,0.976,1.036
		c0,0.73-0.183,1.725-0.549,2.984c-0.648,1.42-1.197,2.131-1.644,2.131c-0.325,0-0.568-0.264-0.73-0.791
		c-0.65-2.193-1.766-4.609-3.35-7.248c-0.203-0.405-0.304-0.73-0.304-0.974C232.104,42.867,232.184,42.705,232.346,42.705z
		 M269.858,58.295c0.366,0,1.158,0.527,2.376,1.584c1.177,1.096,1.766,1.785,1.766,2.069c0,0.325-0.244,0.487-0.731,0.487
		c-3.166,0.285-7.146,0.711-11.935,1.279v20.645c0,3.085-0.163,6.109-0.487,9.073c-0.406,2.72-0.792,4.08-1.158,4.08
		c-0.405,0-1.278-0.893-2.618-2.68c-0.731-0.934-1.096-1.745-1.096-2.437c0-0.527,0.122-1.014,0.364-1.461
		c0.489-0.446,0.813-1.359,0.976-2.74c0.242-1.259,0.365-3.653,0.365-7.186V64.141c-4.831,0.649-7.471,1.076-7.918,1.279
		c-0.404,0.162-0.689,0.243-0.852,0.243c-0.649,0-1.522-0.548-2.618-1.644c-0.69-0.609-1.036-1.137-1.036-1.584
		c0-0.649,0.487-0.974,1.462-0.974c1.705,0,5.359-0.224,10.962-0.671V52.51c0-3.005-0.386-5.684-1.157-8.039
		c-0.854-1.502-1.278-2.416-1.278-2.741c0-0.487,0.243-0.73,0.73-0.73c0.446,0,1.603,0.771,3.471,2.314
		c1.746,1.625,2.619,2.72,2.619,3.289c0,0.73-0.122,1.36-0.365,1.888c-0.244,0.609-0.365,1.765-0.365,3.47v8.344
		c4.019-0.65,6.617-1.219,7.795-1.705C269.412,58.396,269.656,58.295,269.858,58.295z"/>
</g>
<g>
</g>
<g>
</g>
<g>
</g>
<g>
</g>
<g>
</g>
<g>
</g>
<g>
</g>
<g>
</g>
<g>
</g>
<g>
</g>
<g>
</g>
<g>
</g>
<g>
</g>
<g>
</g>
<g>
</g>
</svg>
