<?xml version="1.0" encoding="utf-8"?>
<!-- Generator: Adobe Illustrator 16.0.0, SVG Export Plug-In . SVG Version: 6.00 Build 0)  -->
<!DOCTYPE svg PUBLIC "-//W3C//DTD SVG 1.1//EN" "http://www.w3.org/Graphics/SVG/1.1/DTD/svg11.dtd">
<svg version="1.1" id="圖層_1" xmlns="http://www.w3.org/2000/svg" xmlns:xlink="http://www.w3.org/1999/xlink" x="0px" y="0px"
	 width="74px" height="28px" viewBox="0 0 74 28" enable-background="new 0 0 74 28" xml:space="preserve">
<g>
	<g>
		<g>
			<path fill="#707070" d="M57.155,14c0,0.429,0.348,0.778,0.777,0.778h2.334v2.333c0,0.43,0.348,0.777,0.777,0.777
				s0.777-0.348,0.777-0.777v-2.333h2.334c0.43,0,0.778-0.349,0.778-0.778c0-0.43-0.349-0.778-0.778-0.778h-2.334v-2.333
				c0-0.43-0.348-0.778-0.777-0.778s-0.777,0.348-0.777,0.778v2.333h-2.334C57.503,13.222,57.155,13.57,57.155,14z"/>
			<path fill="#707070" d="M57.325,6.447l1.007-0.417c0.397-0.164,0.585-0.62,0.421-1.017c-0.164-0.396-0.619-0.585-1.017-0.42
				L56.731,5.01c-0.397,0.165-0.587,0.62-0.421,1.017C56.475,6.421,56.928,6.612,57.325,6.447z"/>
			<path fill="#707070" d="M61.044,4.043c-0.43,0-0.777,0.348-0.777,0.778c0,0.43,0.348,0.778,0.777,0.778
				c4.644,0,8.4,3.757,8.4,8.401c0,4.643-3.757,8.4-8.4,8.4s-8.4-3.758-8.4-8.4c0-0.43-0.35-0.778-0.778-0.778
				S51.088,13.57,51.088,14c0,5.503,4.453,9.956,9.956,9.956S71,19.503,71,14C71,8.498,66.547,4.043,61.044,4.043z"/>
			<path fill="#707070" d="M54.719,8.445l0.77-0.771c0.304-0.303,0.304-0.796,0-1.099c-0.303-0.305-0.796-0.305-1.099,0l-0.771,0.77
				c-0.303,0.304-0.303,0.796,0,1.1C53.922,8.749,54.415,8.749,54.719,8.445z"/>
			<path fill="#707070" d="M52.059,11.709c0.397,0.165,0.851-0.025,1.015-0.421l0.418-1.006c0.165-0.397-0.024-0.852-0.422-1.017
				c-0.396-0.164-0.851,0.024-1.015,0.421l-0.418,1.006C51.473,11.09,51.661,11.545,52.059,11.709z"/>
		</g>
	</g>
</g>
<g>
</g>
<g>
</g>
<g>
</g>
<g>
</g>
<g>
</g>
<g>
</g>
<g>
</g>
<g>
</g>
<g>
</g>
<g>
</g>
<g>
</g>
<g>
</g>
<g>
</g>
<g>
</g>
<g>
</g>
</svg>
